<svg width="223" height="66" viewBox="0 0 223 66" fill="none" xmlns="http://www.w3.org/2000/svg">
<path d="M44.428 52.0855L30.279 66H0V0H30.279L44.428 21.7179V52.0855ZM25.7513 49.9231V16.0769H18.7711V49.9231H25.7513Z" fill="#F279C2"/>
<path d="M95.3682 52.0855L81.2192 66H50.9402V14.1966L65.0893 0H95.3682V52.0855ZM76.6915 49.9231V16.0769H69.7113V49.9231H76.6915Z" fill="#F279C2"/>
<path d="M146.214 66H101.88V0H146.214V16.0769H120.557V26.6068H130.462V38.0769H120.557V49.9231H146.214V66Z" fill="#F279C2"/>
<path d="M223 66H204.229V29.9915H197.249V66H178.572V16.0769H171.592V66H152.821V0H183.1L197.249 13.9145H223V66Z" fill="#F279C2"/>
</svg>
