<svg width="52" height="52" viewBox="0 0 52 52" fill="none" xmlns="http://www.w3.org/2000/svg">
<circle cx="26" cy="26" r="26" fill="#400559"/>
<path fill-rule="evenodd" clip-rule="evenodd" d="M20.1754 18.2538C17.8053 18.2948 15.8724 20.2932 15.9153 22.773C15.9335 23.8238 16.3042 24.7775 16.9074 25.5251L26.2725 35.5107L35.5514 24.8254C35.9697 24.1295 36.2061 23.3064 36.1908 22.4221C36.1479 19.9423 34.147 18.012 31.7769 18.053C29.4067 18.094 27.4738 20.0924 27.5167 22.5722C27.5307 23.3805 26.8867 24.0472 26.0784 24.0612C25.27 24.0752 24.6034 23.4312 24.5894 22.6228C24.5465 20.1431 22.5456 18.2128 20.1754 18.2538ZM25.9763 18.1602C24.6237 16.405 22.505 15.2852 20.1248 15.3264C16.0876 15.3963 12.9179 18.7778 12.9879 22.8236C13.0182 24.5705 13.6467 26.1712 14.6747 27.4199C14.6947 27.4443 14.7156 27.468 14.7372 27.491L25.2466 38.6966C25.53 38.9988 25.9281 39.1668 26.3424 39.1588C26.7566 39.1509 27.148 38.9678 27.4196 38.655L37.8398 26.6556C37.8881 26.5999 37.9321 26.5407 37.9715 26.4785C38.7212 25.2936 39.1443 23.8787 39.1182 22.3714C39.0482 18.3256 35.7633 15.0558 31.7262 15.1256C29.346 15.1668 27.2672 16.3592 25.9763 18.1602Z" fill="#DDF291"/>
</svg>
