<svg width="52" height="52" viewBox="0 0 52 52" fill="none" xmlns="http://www.w3.org/2000/svg">
<circle cx="26" cy="26" r="26" fill="#400559"/>
<path fill-rule="evenodd" clip-rule="evenodd" d="M36 15.5C36 17.9853 34.2091 20 32 20C31.1038 20 30.2764 19.6684 29.6095 19.1083L19.978 24.5778C19.9925 24.7166 20 24.8574 20 25C20 25.4102 19.9383 25.8059 19.8236 26.1785L30.9311 32.6479C31.5347 32.2367 32.2428 32 33 32C35.1125 32 36.8426 33.8424 36.9898 36.1768L37 36.1827L36.9911 36.1982C36.997 36.298 37 36.3986 37 36.5C37 38.9853 35.2091 41 33 41C30.7909 41 29 38.9853 29 36.5C29 36.1041 29.0454 35.7201 29.1308 35.3543L17.6282 28.6547C17.1308 28.8766 16.5798 29 16 29C13.9216 29 12.2134 27.4148 12.0185 25.3874L12 25.3767L12.0166 25.3672C12.0056 25.2463 12 25.1238 12 25C12 22.7909 13.7909 21 16 21C16.8809 21 17.6952 21.2847 18.3561 21.7672L28.0566 16.2584C28.0194 16.0119 28 15.7585 28 15.5C28 13.0147 29.7909 11 32 11C34.2091 11 36 13.0147 36 15.5Z" fill="#DDF291"/>
</svg>
