<svg width="52" height="52" viewBox="0 0 52 52" fill="none" xmlns="http://www.w3.org/2000/svg">
<circle cx="26" cy="26" r="26" fill="#400559"/>
<path fill-rule="evenodd" clip-rule="evenodd" d="M19.0708 8.90322C20.2751 7.69893 22.2277 7.69893 23.432 8.90322C24.6363 10.1075 24.6363 12.0601 23.432 13.2644L23.4264 13.2699L25.504 21.0135C25.6001 21.0089 25.6969 21.0066 25.7942 21.0066C28.1223 21.0066 30.1407 22.3326 31.1354 24.2705L36.8109 22.6875C36.9703 21.1806 38.2451 20.0066 39.7942 20.0066C41.451 20.0066 42.7942 21.3497 42.7942 23.0066C42.7942 24.6634 41.451 26.0066 39.7942 26.0066C38.8724 26.0066 38.0478 25.5909 37.4975 24.9368L31.7757 26.5328C31.7879 26.6891 31.7942 26.8471 31.7942 27.0066C31.7942 27.8291 31.6287 28.6129 31.3291 29.3267L38.2365 33.0583C38.4172 33.0244 38.6036 33.0066 38.7942 33.0066C40.0438 33.0066 41.115 33.7706 41.566 34.857L41.7942 34.9803L41.6764 35.1715C41.7531 35.4366 41.7942 35.7168 41.7942 36.0066C41.7942 37.6634 40.451 39.0066 38.7942 39.0066C37.1373 39.0066 35.7942 37.6634 35.7942 36.0066C35.7942 35.5072 35.9162 35.0363 36.1321 34.622L29.9845 31.3009C28.9031 32.3563 27.4246 33.0066 25.7942 33.0066C25.4541 33.0066 25.1206 32.9783 24.796 32.9239L23.2269 37.7033C23.2973 37.7622 23.3658 37.8247 23.432 37.8909C24.6363 39.0952 24.6363 41.0477 23.432 42.252C22.2277 43.4563 20.2751 43.4563 19.0708 42.252C17.8665 41.0477 17.8665 39.0952 19.0708 37.8909C19.5659 37.3958 20.1873 37.1043 20.8313 37.0162L22.4761 32.0064C20.8596 30.9315 19.7942 29.0934 19.7942 27.0066C19.7942 26.7636 19.8086 26.524 19.8367 26.2886L17.3271 25.535C17.3066 25.5568 17.2857 25.5783 17.2644 25.5996C16.0601 26.8039 14.1075 26.8039 12.9032 25.5996C11.6989 24.3953 11.6989 22.4427 12.9032 21.2384C14.1075 20.0341 16.0601 20.0341 17.2644 21.2384C17.8132 21.7872 18.1119 22.4915 18.1605 23.2094L20.6295 23.9508C21.217 22.9599 22.0817 22.1526 23.1166 21.6357L21.1122 14.1645C20.37 14.1311 19.6375 13.8311 19.0708 13.2644C17.8665 12.0601 17.8665 10.1075 19.0708 8.90322ZM23.7953 24.1653C23.5694 24.3245 23.3634 24.5099 23.1816 24.7172L24.0101 24.966L23.7953 24.1653ZM22.3239 27.1623C22.363 28.0495 22.7349 28.8502 23.3178 29.4426L23.804 27.9619L22.3239 27.1623ZM25.6 30.4749C25.6643 30.4785 25.729 30.4803 25.7942 30.4803C26.4416 30.4803 27.0477 30.3031 27.5666 29.9947L26.0302 29.1646L25.6 30.4749ZM29.0871 28.1154C29.1812 27.8359 29.2407 27.5405 29.2605 27.2344L28.0706 27.5663L29.0871 28.1154ZM28.6117 24.9745C28.0528 24.2009 27.1832 23.6666 26.1858 23.5547L26.7091 25.5052L28.6117 24.9745Z" fill="#DDF291"/>
<path d="M30 27C30 29.2091 28.2091 31 26 31C23.7909 31 22 29.2091 22 27C22 24.7909 23.7909 23 26 23C28.2091 23 30 24.7909 30 27Z" fill="#400559"/>
</svg>
