<svg width="703" height="412" viewBox="0 0 703 412" fill="none" xmlns="http://www.w3.org/2000/svg">
<path d="M80.3428 266.322H83.3184V353.36H80.3428V266.322Z" fill="#DDF291"/>
<path d="M97.2051 232.845H100.181V353.36H97.2051V232.845Z" fill="#DDF291"/>
<path d="M114.067 201.601H117.043V353.36H114.067V201.601Z" fill="#DDF291"/>
<path d="M130.929 214.248H133.905V353.36H130.929V214.248Z" fill="#DDF291"/>
<path d="M198.625 227.638H201.601V353.36H198.625V227.638Z" fill="#DDF291"/>
<path d="M147.791 243.26H150.767V353.36H147.791V243.26Z" fill="#DDF291"/>
<path d="M215.735 253.675H218.711V353.36H215.735V253.675Z" fill="#DDF291"/>
<path d="M249.212 202.345H252.187V353.36H249.212V202.345Z" fill="#DDF291"/>
<path d="M164.653 174.076H167.629V353.36H164.653V174.076Z" fill="#DDF291"/>
<path d="M232.102 191.186H235.077V353.36H232.102V191.186Z" fill="#DDF291"/>
<path d="M265.578 107.124H268.554V353.36H265.578V107.124Z" fill="#DDF291"/>
<path d="M181.515 139.112H184.491V353.36H181.515V139.112Z" fill="#DDF291"/>
<path d="M40.1714 14.8783C40.1714 6.66123 46.8326 0 55.0497 0H647.206C655.423 0 662.085 6.66125 662.085 14.8783V381.629H40.1714V14.8783Z" fill="#400559"/>
<path d="M80 265H83V353H80V265Z" fill="#DDF291"/>
<path d="M97 232H100V353H97V232Z" fill="#DDF291"/>
<path d="M114 201H117V353H114V201Z" fill="#DDF291"/>
<path d="M131 213H133V353H131V213Z" fill="#DDF291"/>
<path d="M199 227H202V353H199V227Z" fill="#DDF291"/>
<path d="M147 242H151V353H147V242Z" fill="#DDF291"/>
<path d="M215 253H218V353H215V253Z" fill="#DDF291"/>
<path d="M249 201H252V353H249V201Z" fill="#DDF291"/>
<path d="M165 174H168V353H165V174Z" fill="#DDF291"/>
<path d="M232 190H235V353H232V190Z" fill="#DDF291"/>
<path d="M266 105H269V353H266V105Z" fill="#DDF291"/>
<path d="M181 138H184V353H181V138Z" fill="#DDF291"/>
<path fill-rule="evenodd" clip-rule="evenodd" d="M647.206 2.97566H55.0497C48.476 2.97566 43.147 8.30465 43.147 14.8783V378.653H659.109V14.8783C659.109 8.30466 653.78 2.97566 647.206 2.97566ZM55.0497 0C46.8326 0 40.1714 6.66123 40.1714 14.8783V381.629H662.085V14.8783C662.085 6.66125 655.423 0 647.206 0H55.0497Z" fill="#DDF291"/>
<path fill-rule="evenodd" clip-rule="evenodd" d="M312.444 123.49C312.444 122.668 313.11 122.002 313.932 122.002H446.349C447.171 122.002 447.837 122.668 447.837 123.49C447.837 124.312 447.171 124.978 446.349 124.978H313.932C313.11 124.978 312.444 124.312 312.444 123.49ZM312.444 133.722C312.444 132.9 313.11 132.234 313.932 132.234H446.349C447.171 132.234 447.837 132.9 447.837 133.722C447.837 134.544 447.171 135.21 446.349 135.21H313.932C313.11 135.21 312.444 134.544 312.444 133.722ZM312.444 144.32C312.444 143.498 313.11 142.832 313.932 142.832H376.072C376.894 142.832 377.56 143.498 377.56 144.32C377.56 145.141 376.894 145.807 376.072 145.807H313.932C313.11 145.807 312.444 145.141 312.444 144.32Z" fill="#DDF291"/>
<path fill-rule="evenodd" clip-rule="evenodd" d="M489.496 123.49C489.496 122.668 490.162 122.002 490.984 122.002H623.401C624.223 122.002 624.889 122.668 624.889 123.49C624.889 124.312 624.223 124.978 623.401 124.978H490.984C490.162 124.978 489.496 124.312 489.496 123.49ZM489.496 133.722C489.496 132.9 490.162 132.234 490.984 132.234H623.401C624.223 132.234 624.889 132.9 624.889 133.722C624.889 134.544 624.223 135.21 623.401 135.21H490.984C490.162 135.21 489.496 134.544 489.496 133.722ZM489.496 144.32C489.496 143.498 490.162 142.832 490.984 142.832H553.124C553.945 142.832 554.612 143.498 554.612 144.32C554.612 145.141 553.945 145.807 553.124 145.807H490.984C490.162 145.807 489.496 145.141 489.496 144.32Z" fill="#DDF291"/>
<path d="M111.587 58.0253V41.0751H117.784C118.999 41.0751 120.11 41.2487 121.117 41.5959C122.141 41.943 122.957 42.5159 123.564 43.3143C124.172 44.1128 124.476 45.215 124.476 46.621C124.476 47.975 124.163 49.0859 123.538 49.9538C122.931 50.8043 122.115 51.4379 121.091 51.8545C120.067 52.2537 118.965 52.4533 117.784 52.4533H115.753V58.0253H111.587ZM115.753 49.1727H117.576C118.548 49.1727 119.26 48.9557 119.711 48.5217C120.18 48.0704 120.414 47.4369 120.414 46.621C120.414 45.7878 120.171 45.2064 119.685 44.8765C119.199 44.5467 118.496 44.3818 117.576 44.3818H115.753V49.1727Z" fill="#DDF291"/>
<path d="M133.214 58.3377C132.068 58.3377 130.984 58.0686 129.959 57.5305C128.953 56.9924 128.128 56.22 127.486 55.2133C126.861 54.2065 126.549 52.9827 126.549 51.542C126.549 50.1013 126.861 48.8776 127.486 47.8708C128.128 46.864 128.953 46.0916 129.959 45.5535C130.984 45.0154 132.068 44.7464 133.214 44.7464C134.36 44.7464 135.436 45.0154 136.443 45.5535C137.467 46.0916 138.291 46.864 138.916 47.8708C139.558 48.8776 139.879 50.1013 139.879 51.542C139.879 52.9827 139.558 54.2065 138.916 55.2133C138.291 56.22 137.467 56.9924 136.443 57.5305C135.436 58.0686 134.36 58.3377 133.214 58.3377ZM133.214 55.005C133.752 55.005 134.195 54.8661 134.542 54.5884C134.906 54.2933 135.175 53.894 135.349 53.3907C135.523 52.8699 135.609 52.2537 135.609 51.542C135.609 50.8477 135.523 50.2402 135.349 49.7194C135.175 49.1987 134.906 48.7995 134.542 48.5217C134.195 48.2266 133.752 48.0791 133.214 48.0791C132.676 48.0791 132.225 48.2266 131.86 48.5217C131.513 48.7995 131.253 49.1987 131.079 49.7194C130.905 50.2402 130.819 50.8477 130.819 51.542C130.819 52.2537 130.905 52.8699 131.079 53.3907C131.253 53.894 131.513 54.2933 131.86 54.5884C132.225 54.8661 132.676 55.005 133.214 55.005Z" fill="#DDF291"/>
<path d="M143.098 58.0253L141.093 45.0588H145.103L145.754 50.787C145.84 51.4292 145.91 52.0714 145.962 52.7137C146.031 53.3559 146.101 54.0069 146.17 54.6665H146.248C146.318 54.0069 146.396 53.3559 146.483 52.7137C146.587 52.0541 146.7 51.4118 146.821 50.787L147.472 46.9595H150.362L151.091 50.787C151.213 51.4292 151.326 52.0714 151.43 52.7137C151.534 53.3559 151.621 54.0069 151.69 54.6665H151.794C151.898 54.0069 151.959 53.3559 151.977 52.7137C152.011 52.0714 152.063 51.4292 152.133 50.787L152.706 45.0588H156.559L154.71 58.0253H149.894L149.321 54.1718C149.251 53.599 149.173 53.0001 149.086 52.3752C149.017 51.7503 148.948 51.0734 148.878 50.3443H148.774C148.722 50.8304 148.67 51.3684 148.618 51.9586C148.566 52.5488 148.488 53.2865 148.383 54.1718L147.811 58.0253H143.098Z" fill="#DDF291"/>
<path d="M165.219 58.3377C163.865 58.3377 162.642 58.0686 161.548 57.5305C160.454 56.9924 159.587 56.22 158.944 55.2133C158.319 54.2065 158.007 52.9827 158.007 51.542C158.007 50.1187 158.328 48.9036 158.97 47.8968C159.613 46.8901 160.446 46.1176 161.47 45.5795C162.511 45.0241 163.614 44.7464 164.777 44.7464C166.113 44.7464 167.233 45.0241 168.135 45.5795C169.055 46.135 169.741 46.8901 170.192 47.8448C170.661 48.7821 170.895 49.8323 170.895 50.9953C170.895 51.3598 170.878 51.7156 170.843 52.0628C170.809 52.3926 170.774 52.6356 170.739 52.7918H161.105V50.0579H167.875L167.276 50.813C167.276 49.8583 167.077 49.1379 166.677 48.6519C166.278 48.1485 165.688 47.8968 164.907 47.8968C164.299 47.8968 163.779 48.027 163.345 48.2874C162.928 48.5478 162.598 48.9557 162.355 49.5111C162.129 50.0492 162.017 50.7262 162.017 51.542C162.017 52.3926 162.156 53.0869 162.433 53.625C162.728 54.1631 163.154 54.5623 163.709 54.8227C164.282 55.0657 164.976 55.1872 165.792 55.1872C166.347 55.1872 166.877 55.1178 167.38 54.9789C167.901 54.8401 168.448 54.6318 169.021 54.354L170.375 56.8275C169.628 57.2962 168.795 57.6694 167.875 57.9471C166.955 58.2075 166.07 58.3377 165.219 58.3377Z" fill="#DDF291"/>
<path d="M175.103 58.0253V45.0588H178.514L178.826 47.8448H178.931C179.555 46.7859 180.319 46.0048 181.222 45.5014C182.124 44.9981 183.079 44.7464 184.086 44.7464C184.676 44.7464 185.145 44.7984 185.492 44.9026C185.839 44.9894 186.195 45.1109 186.559 45.2671L185.726 48.7561C185.344 48.6172 184.989 48.5217 184.659 48.4697C184.329 48.4002 183.93 48.3655 183.461 48.3655C182.68 48.3655 181.916 48.5998 181.17 49.0685C180.423 49.5198 179.781 50.3096 179.243 51.4379V58.0253H175.103Z" fill="#DDF291"/>
<path d="M212.758 58.3377C211.7 58.3377 210.693 58.1554 209.738 57.7909C208.783 57.4264 207.933 56.8883 207.186 56.1766C206.457 55.4476 205.876 54.545 205.442 53.4688C205.025 52.3752 204.817 51.1081 204.817 49.6674C204.817 47.7753 205.182 46.1697 205.911 44.8505C206.657 43.5139 207.646 42.4985 208.879 41.8042C210.111 41.1099 211.491 40.7627 213.019 40.7627C214.095 40.7627 215.076 40.9883 215.961 41.4397C216.846 41.8736 217.575 42.377 218.148 42.9498L215.857 45.5014C215.475 45.1369 215.05 44.8592 214.581 44.6683C214.13 44.46 213.609 44.3558 213.019 44.3558C212.272 44.3558 211.595 44.5641 210.988 44.9807C210.398 45.3799 209.929 45.9701 209.582 46.7512C209.252 47.515 209.087 48.4349 209.087 49.5111C209.087 50.6221 209.252 51.5681 209.582 52.3492C209.929 53.1303 210.415 53.7291 211.04 54.1457C211.665 54.545 212.385 54.7446 213.201 54.7446C213.774 54.7446 214.303 54.6144 214.789 54.354C215.275 54.0763 215.709 53.7378 216.091 53.3386L218.382 55.8381C217.688 56.6713 216.864 57.2962 215.909 57.7128C214.954 58.1294 213.904 58.3377 212.758 58.3377Z" fill="#DDF291"/>
<path d="M220.507 58.0253V41.0751H224.803L226.314 46.8554L226.834 49.1206H226.938L227.459 46.8554L228.969 41.0751H233.265V58.0253H229.802V53.4167C229.802 52.9133 229.82 52.2971 229.855 51.5681C229.907 50.839 229.95 50.0753 229.985 49.2768C230.037 48.461 230.098 47.6885 230.167 46.9595C230.236 46.2305 230.297 45.6316 230.349 45.163H230.271L228.891 49.9538L227.798 53.5469H225.871L224.725 49.9538L223.475 45.163H223.371C223.423 45.6316 223.484 46.2305 223.554 46.9595C223.623 47.6885 223.675 48.461 223.71 49.2768C223.762 50.0753 223.805 50.839 223.84 51.5681C223.892 52.2971 223.918 52.9133 223.918 53.4167V58.0253H220.507Z" fill="#DDF291"/>
<path d="M242.42 58.3377C241.292 58.3377 240.155 58.1381 239.009 57.7388C237.881 57.3223 236.848 56.706 235.911 55.8902L238.28 53.0522C238.94 53.5556 239.643 53.9635 240.389 54.2759C241.153 54.5884 241.926 54.7446 242.707 54.7446C243.453 54.7446 243.991 54.6318 244.321 54.4061C244.668 54.1631 244.842 53.868 244.842 53.5208C244.842 53.1563 244.738 52.8699 244.529 52.6616C244.338 52.436 244.052 52.245 243.67 52.0888C243.288 51.9152 242.837 51.7243 242.316 51.516L240.155 50.6047C239.513 50.3617 238.914 50.0319 238.358 49.6153C237.82 49.1987 237.386 48.6866 237.057 48.0791C236.727 47.4542 236.562 46.7339 236.562 45.918C236.562 44.9633 236.822 44.1041 237.343 43.3404C237.881 42.5593 238.628 41.9344 239.582 41.4657C240.537 40.997 241.648 40.7627 242.915 40.7627C243.922 40.7627 244.92 40.9536 245.909 41.3355C246.916 41.7 247.819 42.2555 248.617 43.0019L246.534 45.6316C245.927 45.215 245.336 44.9026 244.764 44.6943C244.191 44.4686 243.496 44.3558 242.681 44.3558C242.125 44.3558 241.665 44.4686 241.301 44.6943C240.954 44.9026 240.78 45.2324 240.78 45.6837C240.78 45.9788 240.884 46.2305 241.092 46.4388C241.318 46.6297 241.63 46.812 242.03 46.9855C242.446 47.1418 242.932 47.324 243.488 47.5323L245.493 48.3655C246.256 48.6432 246.899 48.9991 247.419 49.433C247.957 49.8496 248.365 50.353 248.643 50.9432C248.938 51.516 249.086 52.2016 249.086 53.0001C249.086 53.9548 248.825 54.8401 248.305 55.6559C247.801 56.4544 247.055 57.1053 246.065 57.6087C245.076 58.0947 243.861 58.3377 242.42 58.3377Z" fill="#DDF291"/>
<path d="M313.679 176.308V172.975H318.053V163.914H314.408V161.337C315.172 161.232 315.823 161.111 316.361 160.972C316.916 160.833 317.411 160.668 317.845 160.477C318.279 160.286 318.722 160.052 319.173 159.774H322.193V172.975H325.865V176.308H313.679Z" fill="#DDF291"/>
<path d="M328.744 176.308V173.939C330.272 172.671 331.617 171.508 332.78 170.45C333.961 169.391 334.881 168.419 335.54 167.533C336.2 166.648 336.53 165.824 336.53 165.06C336.53 164.279 336.295 163.697 335.827 163.315C335.375 162.916 334.75 162.717 333.952 162.717C333.327 162.717 332.754 162.881 332.233 163.211C331.713 163.541 331.218 163.914 330.749 164.331L328.536 162.118C329.421 161.215 330.315 160.547 331.218 160.113C332.138 159.679 333.24 159.462 334.525 159.462C335.705 159.462 336.738 159.688 337.623 160.139C338.508 160.573 339.203 161.198 339.706 162.014C340.209 162.812 340.461 163.749 340.461 164.826C340.461 165.728 340.183 166.648 339.628 167.585C339.072 168.523 338.352 169.451 337.467 170.371C336.599 171.291 335.67 172.177 334.681 173.027C335.15 172.975 335.662 172.932 336.217 172.897C336.773 172.845 337.259 172.819 337.675 172.819H341.294V176.308H328.744Z" fill="#DDF291"/>
<path d="M349.85 176.62C348.653 176.62 347.594 176.412 346.674 175.995C345.771 175.579 345.033 175.11 344.461 174.589L346.648 172.116C346.978 172.411 347.394 172.68 347.898 172.923C348.418 173.166 348.948 173.288 349.486 173.288C350.163 173.288 350.779 173.114 351.334 172.767C351.907 172.402 352.367 171.821 352.714 171.022C353.062 170.207 353.235 169.104 353.235 167.716C353.235 166.344 353.088 165.286 352.793 164.539C352.497 163.793 352.133 163.281 351.699 163.003C351.265 162.725 350.814 162.586 350.345 162.586C349.963 162.586 349.59 162.664 349.225 162.821C348.861 162.977 348.566 163.237 348.34 163.602C348.132 163.966 348.028 164.452 348.028 165.06C348.028 165.841 348.236 166.405 348.653 166.752C349.069 167.082 349.607 167.247 350.267 167.247C350.736 167.247 351.222 167.125 351.725 166.882C352.228 166.622 352.723 166.188 353.209 165.581L353.391 168.236C352.801 168.844 352.124 169.321 351.36 169.668C350.614 169.998 349.946 170.163 349.356 170.163C348.401 170.163 347.533 169.99 346.752 169.642C345.988 169.278 345.381 168.722 344.929 167.976C344.478 167.212 344.252 166.24 344.252 165.06C344.252 163.897 344.53 162.899 345.086 162.066C345.641 161.215 346.37 160.573 347.273 160.139C348.193 159.688 349.191 159.462 350.267 159.462C351.1 159.462 351.916 159.618 352.714 159.931C353.53 160.243 354.259 160.729 354.902 161.389C355.544 162.048 356.056 162.899 356.438 163.94C356.82 164.982 357.011 166.24 357.011 167.716C357.011 169.226 356.811 170.545 356.412 171.673C356.012 172.784 355.474 173.704 354.797 174.433C354.138 175.162 353.374 175.709 352.506 176.074C351.656 176.438 350.77 176.62 349.85 176.62Z" fill="#DDF291"/>
<path d="M381.96 176.62C380.675 176.62 379.547 176.291 378.575 175.631C377.62 174.971 376.874 173.999 376.336 172.715C375.798 171.43 375.529 169.851 375.529 167.976C375.529 165.147 376.119 163.02 377.299 161.597C378.479 160.174 380.033 159.462 381.96 159.462C383.886 159.462 385.44 160.174 386.62 161.597C387.801 163.02 388.391 165.147 388.391 167.976C388.391 169.851 388.122 171.43 387.584 172.715C387.046 173.999 386.291 174.971 385.318 175.631C384.364 176.291 383.244 176.62 381.96 176.62ZM381.96 173.418C382.463 173.418 382.923 173.262 383.34 172.949C383.756 172.619 384.086 172.064 384.329 171.283C384.589 170.484 384.72 169.382 384.72 167.976C384.72 166.57 384.589 165.485 384.329 164.721C384.086 163.958 383.756 163.428 383.34 163.133C382.923 162.821 382.463 162.664 381.96 162.664C381.456 162.664 380.996 162.821 380.58 163.133C380.163 163.428 379.825 163.958 379.564 164.721C379.321 165.485 379.2 166.57 379.2 167.976C379.2 169.382 379.321 170.484 379.564 171.283C379.825 172.064 380.163 172.619 380.58 172.949C380.996 173.262 381.456 173.418 381.96 173.418ZM381.96 169.981C381.387 169.981 380.901 169.799 380.502 169.434C380.12 169.052 379.929 168.558 379.929 167.95C379.929 167.342 380.12 166.856 380.502 166.492C380.901 166.11 381.387 165.919 381.96 165.919C382.55 165.919 383.036 166.11 383.418 166.492C383.8 166.856 383.991 167.342 383.991 167.95C383.991 168.558 383.8 169.052 383.418 169.434C383.036 169.799 382.55 169.981 381.96 169.981Z" fill="#DDF291"/>
<path d="M396.686 176.62C395.489 176.62 394.43 176.412 393.51 175.995C392.607 175.579 391.87 175.11 391.297 174.589L393.484 172.116C393.814 172.411 394.23 172.68 394.734 172.923C395.254 173.166 395.784 173.288 396.322 173.288C396.999 173.288 397.615 173.114 398.171 172.767C398.743 172.402 399.203 171.821 399.551 171.022C399.898 170.207 400.071 169.104 400.071 167.716C400.071 166.344 399.924 165.286 399.629 164.539C399.334 163.793 398.969 163.281 398.535 163.003C398.101 162.725 397.65 162.586 397.181 162.586C396.799 162.586 396.426 162.664 396.062 162.821C395.697 162.977 395.402 163.237 395.176 163.602C394.968 163.966 394.864 164.452 394.864 165.06C394.864 165.841 395.072 166.405 395.489 166.752C395.905 167.082 396.443 167.247 397.103 167.247C397.572 167.247 398.058 167.125 398.561 166.882C399.065 166.622 399.559 166.188 400.045 165.581L400.228 168.236C399.637 168.844 398.96 169.321 398.197 169.668C397.45 169.998 396.782 170.163 396.192 170.163C395.237 170.163 394.369 169.99 393.588 169.642C392.824 169.278 392.217 168.722 391.765 167.976C391.314 167.212 391.089 166.24 391.089 165.06C391.089 163.897 391.366 162.899 391.922 162.066C392.477 161.215 393.206 160.573 394.109 160.139C395.029 159.688 396.027 159.462 397.103 159.462C397.936 159.462 398.752 159.618 399.551 159.931C400.366 160.243 401.095 160.729 401.738 161.389C402.38 162.048 402.892 162.899 403.274 163.94C403.656 164.982 403.847 166.24 403.847 167.716C403.847 169.226 403.647 170.545 403.248 171.673C402.849 172.784 402.31 173.704 401.634 174.433C400.974 175.162 400.21 175.709 399.342 176.074C398.492 176.438 397.606 176.62 396.686 176.62Z" fill="#DDF291"/>
<path d="M412.611 176.62C411.656 176.62 410.788 176.516 410.007 176.308C409.244 176.117 408.558 175.848 407.95 175.501C407.343 175.154 406.822 174.746 406.388 174.277L408.289 171.673C408.844 172.142 409.461 172.533 410.137 172.845C410.814 173.14 411.491 173.288 412.168 173.288C412.741 173.288 413.245 173.218 413.679 173.079C414.13 172.94 414.477 172.741 414.72 172.48C414.98 172.22 415.111 171.899 415.111 171.517C415.111 171.066 414.972 170.684 414.694 170.371C414.416 170.042 413.93 169.79 413.236 169.616C412.559 169.443 411.587 169.356 410.32 169.356V166.44C411.361 166.44 412.186 166.353 412.793 166.179C413.418 166.006 413.869 165.772 414.147 165.476C414.442 165.164 414.59 164.8 414.59 164.383C414.59 163.845 414.382 163.437 413.965 163.159C413.566 162.864 413.01 162.717 412.299 162.717C411.691 162.717 411.118 162.838 410.58 163.081C410.042 163.324 409.487 163.671 408.914 164.123L406.831 161.597C407.664 160.937 408.549 160.417 409.487 160.035C410.441 159.653 411.448 159.462 412.507 159.462C413.739 159.462 414.824 159.644 415.761 160.009C416.699 160.373 417.428 160.894 417.949 161.571C418.469 162.248 418.73 163.081 418.73 164.07C418.73 164.904 418.461 165.624 417.923 166.232C417.384 166.822 416.621 167.308 415.631 167.69V167.794C416.326 167.985 416.942 168.262 417.48 168.627C418.035 168.974 418.469 169.417 418.782 169.955C419.112 170.476 419.276 171.092 419.276 171.803C419.276 172.828 418.964 173.704 418.339 174.433C417.714 175.145 416.898 175.692 415.892 176.074C414.885 176.438 413.791 176.62 412.611 176.62Z" fill="#DDF291"/>
<path d="M313.679 274.505V271.172H318.053V262.111H314.408V259.533C315.172 259.429 315.823 259.308 316.361 259.169C316.916 259.03 317.411 258.865 317.845 258.674C318.279 258.483 318.722 258.249 319.173 257.971H322.193V271.172H325.865V274.505H313.679Z" fill="#DDF291"/>
<path d="M334.681 274.817C333.726 274.817 332.867 274.713 332.103 274.505C331.339 274.314 330.654 274.045 330.046 273.698C329.456 273.333 328.927 272.925 328.458 272.474L330.307 269.87C330.671 270.165 331.044 270.434 331.426 270.677C331.826 270.92 332.242 271.12 332.676 271.276C333.127 271.415 333.587 271.484 334.056 271.484C334.664 271.484 335.193 271.398 335.644 271.224C336.096 271.033 336.443 270.764 336.686 270.417C336.929 270.07 337.05 269.636 337.05 269.115C337.05 268.334 336.781 267.752 336.243 267.371C335.722 266.971 335.054 266.772 334.238 266.772C333.735 266.772 333.301 266.832 332.936 266.954C332.589 267.058 332.138 267.266 331.583 267.579L329.76 266.407L330.203 257.971H340.487V261.46H333.77L333.535 264.22C333.9 264.099 334.23 264.02 334.525 263.986C334.837 263.934 335.176 263.908 335.54 263.908C336.547 263.908 337.476 264.09 338.326 264.454C339.194 264.819 339.888 265.383 340.409 266.147C340.947 266.893 341.216 267.848 341.216 269.011C341.216 270.243 340.912 271.293 340.305 272.161C339.697 273.012 338.89 273.671 337.883 274.14C336.894 274.591 335.827 274.817 334.681 274.817Z" fill="#DDF291"/>
<path d="M344.357 274.505V272.135C345.884 270.868 347.229 269.705 348.392 268.646C349.573 267.587 350.493 266.615 351.152 265.73C351.812 264.845 352.142 264.02 352.142 263.257C352.142 262.476 351.907 261.894 351.439 261.512C350.987 261.113 350.362 260.913 349.564 260.913C348.939 260.913 348.366 261.078 347.845 261.408C347.325 261.738 346.83 262.111 346.361 262.528L344.148 260.314C345.033 259.412 345.927 258.744 346.83 258.31C347.75 257.876 348.852 257.659 350.137 257.659C351.317 257.659 352.35 257.884 353.235 258.336C354.12 258.77 354.815 259.394 355.318 260.21C355.821 261.009 356.073 261.946 356.073 263.022C356.073 263.925 355.795 264.845 355.24 265.782C354.685 266.72 353.964 267.648 353.079 268.568C352.211 269.488 351.282 270.373 350.293 271.224C350.762 271.172 351.274 271.129 351.829 271.094C352.385 271.042 352.871 271.016 353.287 271.016H356.906V274.505H344.357Z" fill="#DDF291"/>
<path d="M365.462 274.817C364.265 274.817 363.206 274.609 362.286 274.192C361.383 273.776 360.646 273.307 360.073 272.786L362.26 270.313C362.59 270.608 363.006 270.877 363.51 271.12C364.03 271.363 364.56 271.484 365.098 271.484C365.775 271.484 366.391 271.311 366.946 270.964C367.519 270.599 367.979 270.018 368.326 269.219C368.674 268.403 368.847 267.301 368.847 265.912C368.847 264.541 368.7 263.482 368.405 262.736C368.109 261.99 367.745 261.477 367.311 261.2C366.877 260.922 366.426 260.783 365.957 260.783C365.575 260.783 365.202 260.861 364.837 261.017C364.473 261.174 364.178 261.434 363.952 261.799C363.744 262.163 363.64 262.649 363.64 263.257C363.64 264.038 363.848 264.602 364.265 264.949C364.681 265.279 365.219 265.444 365.879 265.444C366.348 265.444 366.834 265.322 367.337 265.079C367.84 264.819 368.335 264.385 368.821 263.777L369.003 266.433C368.413 267.041 367.736 267.518 366.973 267.865C366.226 268.195 365.558 268.36 364.968 268.36C364.013 268.36 363.145 268.186 362.364 267.839C361.6 267.475 360.993 266.919 360.541 266.173C360.09 265.409 359.864 264.437 359.864 263.257C359.864 262.094 360.142 261.096 360.698 260.262C361.253 259.412 361.982 258.77 362.885 258.336C363.805 257.884 364.803 257.659 365.879 257.659C366.712 257.659 367.528 257.815 368.326 258.127C369.142 258.44 369.871 258.926 370.514 259.585C371.156 260.245 371.668 261.096 372.05 262.137C372.432 263.179 372.623 264.437 372.623 265.912C372.623 267.423 372.423 268.742 372.024 269.87C371.624 270.981 371.086 271.901 370.409 272.63C369.75 273.359 368.986 273.906 368.118 274.27C367.268 274.635 366.382 274.817 365.462 274.817Z" fill="#DDF291"/>
<path d="M497.475 274.505V265.209C497.475 264.654 497.492 264.02 497.527 263.309C497.579 262.597 497.614 261.972 497.631 261.434H497.527C497.249 261.903 496.945 262.38 496.616 262.866C496.303 263.352 495.999 263.838 495.704 264.324L493.595 267.527H503.359V270.677H489.638V267.787L496.277 257.971H501.354V274.505H497.475Z" fill="#DDF291"/>
<path d="M505.797 274.505V272.135C507.324 270.868 508.669 269.705 509.832 268.646C511.013 267.587 511.933 266.615 512.592 265.73C513.252 264.845 513.582 264.02 513.582 263.257C513.582 262.476 513.347 261.894 512.879 261.512C512.427 261.113 511.802 260.913 511.004 260.913C510.379 260.913 509.806 261.078 509.285 261.408C508.765 261.738 508.27 262.111 507.801 262.528L505.588 260.314C506.473 259.412 507.367 258.744 508.27 258.31C509.19 257.876 510.292 257.659 511.577 257.659C512.757 257.659 513.79 257.884 514.675 258.336C515.56 258.77 516.255 259.394 516.758 260.21C517.262 261.009 517.513 261.946 517.513 263.022C517.513 263.925 517.235 264.845 516.68 265.782C516.125 266.72 515.404 267.648 514.519 268.568C513.651 269.488 512.722 270.373 511.733 271.224C512.202 271.172 512.714 271.129 513.269 271.094C513.825 271.042 514.311 271.016 514.727 271.016H518.346V274.505H505.797Z" fill="#DDF291"/>
<path d="M526.902 274.817C525.705 274.817 524.646 274.609 523.726 274.192C522.823 273.776 522.086 273.307 521.513 272.786L523.7 270.313C524.03 270.608 524.446 270.877 524.95 271.12C525.47 271.363 526 271.484 526.538 271.484C527.215 271.484 527.831 271.311 528.387 270.964C528.959 270.599 529.419 270.018 529.766 269.219C530.114 268.403 530.287 267.301 530.287 265.912C530.287 264.541 530.14 263.482 529.845 262.736C529.549 261.99 529.185 261.477 528.751 261.2C528.317 260.922 527.866 260.783 527.397 260.783C527.015 260.783 526.642 260.861 526.278 261.017C525.913 261.174 525.618 261.434 525.392 261.799C525.184 262.163 525.08 262.649 525.08 263.257C525.08 264.038 525.288 264.602 525.705 264.949C526.121 265.279 526.659 265.444 527.319 265.444C527.788 265.444 528.274 265.322 528.777 265.079C529.28 264.819 529.775 264.385 530.261 263.777L530.443 266.433C529.853 267.041 529.176 267.518 528.413 267.865C527.666 268.195 526.998 268.36 526.408 268.36C525.453 268.36 524.585 268.186 523.804 267.839C523.04 267.475 522.433 266.919 521.981 266.173C521.53 265.409 521.304 264.437 521.304 263.257C521.304 262.094 521.582 261.096 522.138 260.262C522.693 259.412 523.422 258.77 524.325 258.336C525.245 257.884 526.243 257.659 527.319 257.659C528.152 257.659 528.968 257.815 529.766 258.127C530.582 258.44 531.311 258.926 531.954 259.585C532.596 260.245 533.108 261.096 533.49 262.137C533.872 263.179 534.063 264.437 534.063 265.912C534.063 267.423 533.863 268.742 533.464 269.87C533.064 270.981 532.526 271.901 531.849 272.63C531.19 273.359 530.426 273.906 529.558 274.27C528.708 274.635 527.822 274.817 526.902 274.817Z" fill="#DDF291"/>
<path d="M558.986 274.817C557.701 274.817 556.59 274.626 555.653 274.244C554.716 273.862 553.995 273.333 553.492 272.656C552.989 271.979 552.737 271.189 552.737 270.287C552.737 269.627 552.876 269.054 553.153 268.568C553.431 268.082 553.796 267.657 554.247 267.292C554.698 266.911 555.21 266.581 555.783 266.303V266.199C555.089 265.713 554.516 265.157 554.065 264.532C553.613 263.89 553.388 263.144 553.388 262.293C553.388 261.339 553.631 260.514 554.117 259.82C554.603 259.125 555.271 258.596 556.122 258.232C556.99 257.85 557.988 257.659 559.116 257.659C560.765 257.659 562.084 258.075 563.074 258.908C564.08 259.724 564.584 260.835 564.584 262.241C564.584 262.988 564.349 263.665 563.881 264.272C563.429 264.862 562.883 265.357 562.24 265.756V265.86C562.813 266.138 563.334 266.477 563.803 266.876C564.271 267.275 564.636 267.752 564.896 268.308C565.174 268.846 565.313 269.48 565.313 270.209C565.313 271.094 565.07 271.884 564.584 272.578C564.098 273.255 563.377 273.802 562.423 274.218C561.485 274.617 560.34 274.817 558.986 274.817ZM560.105 264.767C560.834 264.038 561.199 263.291 561.199 262.528C561.199 262.111 561.112 261.755 560.938 261.46C560.765 261.165 560.513 260.939 560.183 260.783C559.871 260.627 559.48 260.549 559.012 260.549C558.474 260.549 558.005 260.688 557.606 260.965C557.207 261.243 557.007 261.686 557.007 262.293C557.007 262.71 557.137 263.057 557.397 263.335C557.658 263.612 558.022 263.873 558.491 264.116C558.96 264.342 559.498 264.559 560.105 264.767ZM559.064 271.953C559.758 271.953 560.331 271.805 560.782 271.51C561.234 271.198 561.459 270.721 561.459 270.078C561.459 269.731 561.364 269.436 561.173 269.193C560.999 268.95 560.748 268.733 560.418 268.542C560.088 268.334 559.689 268.143 559.22 267.969C558.769 267.778 558.257 267.579 557.684 267.371C557.423 267.579 557.189 267.813 556.981 268.074C556.79 268.334 556.634 268.612 556.512 268.907C556.391 269.184 556.33 269.488 556.33 269.818C556.33 270.269 556.451 270.66 556.694 270.99C556.937 271.302 557.267 271.545 557.684 271.719C558.1 271.875 558.56 271.953 559.064 271.953Z" fill="#DDF291"/>
<path d="M574.181 274.817C573.226 274.817 572.367 274.713 571.604 274.505C570.84 274.314 570.154 274.045 569.547 273.698C568.956 273.333 568.427 272.925 567.958 272.474L569.807 269.87C570.171 270.165 570.545 270.434 570.927 270.677C571.326 270.92 571.742 271.12 572.176 271.276C572.628 271.415 573.088 271.484 573.556 271.484C574.164 271.484 574.693 271.398 575.145 271.224C575.596 271.033 575.943 270.764 576.186 270.417C576.429 270.07 576.551 269.636 576.551 269.115C576.551 268.334 576.281 267.752 575.743 267.371C575.223 266.971 574.554 266.772 573.739 266.772C573.235 266.772 572.801 266.832 572.437 266.954C572.09 267.058 571.638 267.266 571.083 267.579L569.26 266.407L569.703 257.971H579.987V261.46H573.27L573.036 264.22C573.4 264.099 573.73 264.02 574.025 263.986C574.337 263.934 574.676 263.908 575.04 263.908C576.047 263.908 576.976 264.09 577.826 264.454C578.694 264.819 579.389 265.383 579.909 266.147C580.447 266.893 580.716 267.848 580.716 269.011C580.716 270.243 580.413 271.293 579.805 272.161C579.198 273.012 578.39 273.671 577.384 274.14C576.394 274.591 575.327 274.817 574.181 274.817Z" fill="#DDF291"/>
<path d="M590.678 274.817C589.828 274.817 589.003 274.67 588.205 274.374C587.407 274.062 586.677 273.576 586.018 272.916C585.376 272.239 584.864 271.38 584.482 270.339C584.1 269.297 583.909 268.047 583.909 266.589C583.909 265.062 584.108 263.743 584.508 262.632C584.907 261.503 585.436 260.575 586.096 259.846C586.773 259.117 587.537 258.57 588.387 258.205C589.255 257.841 590.149 257.659 591.069 257.659C592.267 257.659 593.317 257.867 594.22 258.284C595.139 258.683 595.886 259.16 596.459 259.716L594.272 262.189C593.942 261.877 593.517 261.608 592.996 261.382C592.492 261.139 591.972 261.017 591.434 261.017C590.774 261.017 590.158 261.191 589.585 261.538C589.029 261.885 588.569 262.467 588.205 263.283C587.858 264.081 587.684 265.183 587.684 266.589C587.684 267.943 587.832 268.993 588.127 269.74C588.422 270.486 588.795 271.007 589.246 271.302C589.698 271.58 590.14 271.719 590.574 271.719C590.991 271.719 591.373 271.641 591.72 271.484C592.067 271.311 592.354 271.042 592.579 270.677C592.805 270.313 592.918 269.835 592.918 269.245C592.918 268.447 592.701 267.883 592.267 267.553C591.85 267.206 591.321 267.032 590.678 267.032C590.21 267.032 589.724 267.162 589.22 267.423C588.717 267.666 588.222 268.1 587.736 268.724L587.528 266.069C588.118 265.444 588.786 264.966 589.533 264.637C590.297 264.289 590.974 264.116 591.564 264.116C592.518 264.116 593.378 264.298 594.141 264.663C594.923 265.027 595.539 265.591 595.99 266.355C596.459 267.101 596.693 268.065 596.693 269.245C596.693 270.408 596.415 271.406 595.86 272.239C595.304 273.073 594.567 273.715 593.647 274.166C592.744 274.6 591.755 274.817 590.678 274.817Z" fill="#DDF291"/>
<path d="M337.485 295.513C336.939 295.513 336.448 295.454 336.012 295.335C335.575 295.225 335.183 295.072 334.836 294.873C334.499 294.665 334.197 294.432 333.929 294.174L334.985 292.686C335.193 292.855 335.407 293.009 335.625 293.147C335.853 293.286 336.091 293.4 336.339 293.49C336.597 293.569 336.86 293.609 337.128 293.609C337.475 293.609 337.777 293.559 338.035 293.46C338.293 293.351 338.491 293.197 338.63 292.999C338.769 292.8 338.839 292.552 338.839 292.255C338.839 291.808 338.685 291.476 338.377 291.258C338.08 291.03 337.698 290.916 337.232 290.916C336.944 290.916 336.696 290.95 336.488 291.02C336.289 291.079 336.032 291.198 335.714 291.377L334.673 290.707L334.926 285.887H340.802V287.88H336.964L336.83 289.458C337.038 289.388 337.227 289.344 337.395 289.324C337.574 289.294 337.767 289.279 337.976 289.279C338.551 289.279 339.082 289.383 339.568 289.591C340.064 289.8 340.46 290.122 340.758 290.559C341.065 290.985 341.219 291.531 341.219 292.195C341.219 292.899 341.046 293.5 340.698 293.995C340.351 294.481 339.89 294.858 339.315 295.126C338.749 295.384 338.139 295.513 337.485 295.513Z" fill="#DDF291"/>
<path d="M346.644 295.513C345.91 295.513 345.275 295.404 344.739 295.186C344.204 294.968 343.792 294.665 343.505 294.278C343.217 293.891 343.073 293.44 343.073 292.924C343.073 292.547 343.152 292.22 343.311 291.942C343.47 291.665 343.678 291.422 343.936 291.213C344.194 290.995 344.486 290.807 344.814 290.648V290.588C344.417 290.311 344.09 289.993 343.832 289.636C343.574 289.269 343.445 288.843 343.445 288.357C343.445 287.811 343.584 287.34 343.862 286.943C344.139 286.546 344.521 286.244 345.007 286.036C345.503 285.817 346.074 285.708 346.718 285.708C347.661 285.708 348.414 285.946 348.98 286.422C349.555 286.889 349.843 287.523 349.843 288.327C349.843 288.753 349.709 289.14 349.441 289.487C349.183 289.825 348.871 290.107 348.504 290.335V290.395C348.831 290.554 349.129 290.747 349.396 290.975C349.664 291.203 349.872 291.476 350.021 291.793C350.18 292.101 350.259 292.463 350.259 292.88C350.259 293.385 350.12 293.837 349.843 294.234C349.565 294.62 349.153 294.933 348.608 295.171C348.072 295.399 347.418 295.513 346.644 295.513ZM347.284 289.77C347.7 289.353 347.909 288.927 347.909 288.49C347.909 288.252 347.859 288.049 347.76 287.88C347.661 287.712 347.517 287.583 347.328 287.494C347.15 287.404 346.927 287.36 346.659 287.36C346.351 287.36 346.083 287.439 345.855 287.598C345.627 287.756 345.513 288.009 345.513 288.357C345.513 288.595 345.587 288.793 345.736 288.952C345.885 289.11 346.093 289.259 346.361 289.398C346.629 289.527 346.936 289.651 347.284 289.77ZM346.688 293.876C347.085 293.876 347.413 293.792 347.67 293.624C347.928 293.445 348.057 293.172 348.057 292.805C348.057 292.607 348.003 292.438 347.894 292.299C347.794 292.16 347.651 292.036 347.462 291.927C347.274 291.808 347.046 291.699 346.778 291.6C346.52 291.491 346.227 291.377 345.9 291.258C345.751 291.377 345.617 291.511 345.498 291.66C345.389 291.808 345.3 291.967 345.23 292.136C345.161 292.294 345.126 292.468 345.126 292.656C345.126 292.914 345.196 293.137 345.335 293.326C345.473 293.504 345.662 293.643 345.9 293.743C346.138 293.832 346.401 293.876 346.688 293.876Z" fill="#DDF291"/>
<path d="M353.72 290.722C353.294 290.722 352.912 290.618 352.574 290.41C352.237 290.202 351.969 289.909 351.771 289.532C351.583 289.155 351.488 288.714 351.488 288.208C351.488 287.434 351.702 286.824 352.128 286.378C352.565 285.931 353.095 285.708 353.72 285.708C354.355 285.708 354.886 285.931 355.312 286.378C355.739 286.824 355.952 287.434 355.952 288.208C355.952 288.714 355.853 289.155 355.654 289.532C355.466 289.909 355.203 290.202 354.866 290.41C354.529 290.618 354.147 290.722 353.72 290.722ZM353.72 289.472C353.889 289.472 354.033 289.383 354.152 289.205C354.281 289.026 354.345 288.694 354.345 288.208C354.345 287.712 354.281 287.385 354.152 287.226C354.033 287.057 353.889 286.973 353.72 286.973C353.561 286.973 353.418 287.057 353.289 287.226C353.16 287.385 353.095 287.712 353.095 288.208C353.095 288.694 353.16 289.026 353.289 289.205C353.418 289.383 353.561 289.472 353.72 289.472ZM352.545 294.933L351.34 293.772L354.137 291.228L354.94 291.972L352.545 294.933ZM357.053 289.755L356.249 289.011L358.645 286.05L359.85 287.226L357.053 289.755ZM357.44 295.513C357.013 295.513 356.631 295.409 356.294 295.201C355.957 294.992 355.689 294.7 355.491 294.323C355.302 293.946 355.208 293.504 355.208 292.999C355.208 292.225 355.421 291.615 355.848 291.169C356.284 290.722 356.815 290.499 357.44 290.499C358.075 290.499 358.605 290.722 359.032 291.169C359.458 291.615 359.671 292.225 359.671 292.999C359.671 293.504 359.572 293.946 359.374 294.323C359.185 294.7 358.923 294.992 358.585 295.201C358.248 295.409 357.866 295.513 357.44 295.513ZM357.44 294.263C357.608 294.263 357.752 294.174 357.871 293.995C358 293.817 358.065 293.485 358.065 292.999C358.065 292.503 358 292.175 357.871 292.017C357.752 291.848 357.608 291.764 357.44 291.764C357.281 291.764 357.137 291.848 357.008 292.017C356.879 292.175 356.815 292.503 356.815 292.999C356.815 293.485 356.879 293.817 357.008 293.995C357.137 294.174 357.281 294.263 357.44 294.263Z" fill="#DDF291"/>
<path d="M511.144 295.335V293.981C512.017 293.257 512.786 292.592 513.451 291.987C514.125 291.382 514.651 290.826 515.028 290.321C515.405 289.815 515.593 289.344 515.593 288.907C515.593 288.461 515.459 288.128 515.191 287.91C514.933 287.682 514.576 287.568 514.12 287.568C513.763 287.568 513.436 287.662 513.138 287.851C512.841 288.039 512.558 288.252 512.29 288.49L511.025 287.226C511.531 286.71 512.042 286.328 512.558 286.08C513.084 285.832 513.713 285.708 514.447 285.708C515.122 285.708 515.712 285.837 516.218 286.095C516.724 286.343 517.121 286.7 517.408 287.166C517.696 287.623 517.84 288.158 517.84 288.773C517.84 289.289 517.681 289.815 517.364 290.35C517.046 290.886 516.635 291.417 516.129 291.942C515.633 292.468 515.102 292.974 514.537 293.46C514.804 293.43 515.097 293.405 515.414 293.385C515.732 293.356 516.01 293.341 516.248 293.341H518.316V295.335H511.144Z" fill="#DDF291"/>
<path d="M523.964 295.513C523.478 295.513 523.007 295.429 522.55 295.26C522.094 295.082 521.677 294.804 521.3 294.427C520.933 294.04 520.641 293.549 520.423 292.954C520.204 292.359 520.095 291.645 520.095 290.812C520.095 289.939 520.209 289.185 520.438 288.55C520.666 287.905 520.968 287.375 521.345 286.958C521.732 286.541 522.168 286.229 522.654 286.021C523.15 285.812 523.661 285.708 524.187 285.708C524.871 285.708 525.471 285.827 525.987 286.065C526.513 286.293 526.939 286.566 527.267 286.884L526.017 288.297C525.828 288.119 525.585 287.965 525.288 287.836C525 287.697 524.703 287.628 524.395 287.628C524.018 287.628 523.666 287.727 523.339 287.925C523.021 288.123 522.759 288.456 522.55 288.922C522.352 289.378 522.253 290.008 522.253 290.812C522.253 291.585 522.337 292.185 522.506 292.612C522.674 293.038 522.888 293.336 523.145 293.504C523.403 293.663 523.656 293.743 523.904 293.743C524.142 293.743 524.36 293.698 524.559 293.609C524.757 293.509 524.921 293.356 525.05 293.147C525.179 292.939 525.243 292.666 525.243 292.329C525.243 291.873 525.119 291.55 524.871 291.362C524.633 291.164 524.331 291.064 523.964 291.064C523.696 291.064 523.418 291.139 523.131 291.288C522.843 291.426 522.56 291.674 522.282 292.032L522.163 290.514C522.501 290.157 522.883 289.884 523.309 289.696C523.745 289.497 524.132 289.398 524.47 289.398C525.015 289.398 525.506 289.502 525.943 289.711C526.389 289.919 526.741 290.241 526.999 290.678C527.267 291.104 527.401 291.655 527.401 292.329C527.401 292.994 527.242 293.564 526.924 294.04C526.607 294.516 526.186 294.883 525.66 295.141C525.144 295.389 524.579 295.513 523.964 295.513Z" fill="#DDF291"/>
<path d="M530.772 290.722C530.346 290.722 529.964 290.618 529.627 290.41C529.289 290.202 529.021 289.909 528.823 289.532C528.635 289.155 528.54 288.714 528.54 288.208C528.54 287.434 528.754 286.824 529.18 286.378C529.617 285.931 530.147 285.708 530.772 285.708C531.407 285.708 531.938 285.931 532.364 286.378C532.791 286.824 533.004 287.434 533.004 288.208C533.004 288.714 532.905 289.155 532.706 289.532C532.518 289.909 532.255 290.202 531.918 290.41C531.581 290.618 531.199 290.722 530.772 290.722ZM530.772 289.472C530.941 289.472 531.085 289.383 531.204 289.205C531.333 289.026 531.397 288.694 531.397 288.208C531.397 287.712 531.333 287.385 531.204 287.226C531.085 287.057 530.941 286.973 530.772 286.973C530.613 286.973 530.47 287.057 530.341 287.226C530.212 287.385 530.147 287.712 530.147 288.208C530.147 288.694 530.212 289.026 530.341 289.205C530.47 289.383 530.613 289.472 530.772 289.472ZM529.597 294.933L528.392 293.772L531.189 291.228L531.992 291.972L529.597 294.933ZM534.105 289.755L533.301 289.011L535.697 286.05L536.902 287.226L534.105 289.755ZM534.492 295.513C534.065 295.513 533.683 295.409 533.346 295.201C533.009 294.992 532.741 294.7 532.543 294.323C532.354 293.946 532.26 293.504 532.26 292.999C532.26 292.225 532.473 291.615 532.9 291.169C533.336 290.722 533.867 290.499 534.492 290.499C535.127 290.499 535.657 290.722 536.084 291.169C536.51 291.615 536.723 292.225 536.723 292.999C536.723 293.504 536.624 293.946 536.426 294.323C536.237 294.7 535.975 294.992 535.637 295.201C535.3 295.409 534.918 295.513 534.492 295.513ZM534.492 294.263C534.66 294.263 534.804 294.174 534.923 293.995C535.052 293.817 535.117 293.485 535.117 292.999C535.117 292.503 535.052 292.175 534.923 292.017C534.804 291.848 534.66 291.764 534.492 291.764C534.333 291.764 534.189 291.848 534.06 292.017C533.931 292.175 533.867 292.503 533.867 292.999C533.867 293.485 533.931 293.817 534.06 293.995C534.189 294.174 534.333 294.263 534.492 294.263Z" fill="#DDF291"/>
<path d="M490.731 176.308V172.975H495.105V163.914H491.46V161.337C492.224 161.232 492.875 161.111 493.413 160.972C493.968 160.833 494.463 160.668 494.897 160.477C495.331 160.286 495.773 160.052 496.225 159.774H499.245V172.975H502.916V176.308H490.731Z" fill="#DDF291"/>
<path d="M505.796 176.308V173.939C507.324 172.671 508.669 171.508 509.832 170.45C511.012 169.391 511.932 168.419 512.592 167.533C513.252 166.648 513.581 165.824 513.581 165.06C513.581 164.279 513.347 163.697 512.878 163.315C512.427 162.916 511.802 162.717 511.004 162.717C510.379 162.717 509.806 162.881 509.285 163.211C508.764 163.541 508.27 163.914 507.801 164.331L505.588 162.118C506.473 161.215 507.367 160.547 508.27 160.113C509.19 159.679 510.292 159.462 511.576 159.462C512.757 159.462 513.79 159.688 514.675 160.139C515.56 160.573 516.254 161.198 516.758 162.014C517.261 162.812 517.513 163.749 517.513 164.826C517.513 165.728 517.235 166.648 516.68 167.585C516.124 168.523 515.404 169.451 514.519 170.371C513.651 171.291 512.722 172.177 511.733 173.027C512.201 172.975 512.713 172.932 513.269 172.897C513.824 172.845 514.31 172.819 514.727 172.819H518.346V176.308H505.796Z" fill="#DDF291"/>
<path d="M527.787 176.62C526.503 176.62 525.375 176.291 524.403 175.631C523.448 174.971 522.701 173.999 522.163 172.715C521.625 171.43 521.356 169.851 521.356 167.976C521.356 165.147 521.946 163.02 523.127 161.597C524.307 160.174 525.861 159.462 527.787 159.462C529.714 159.462 531.268 160.174 532.448 161.597C533.628 163.02 534.219 165.147 534.219 167.976C534.219 169.851 533.949 171.43 533.411 172.715C532.873 173.999 532.118 174.971 531.146 175.631C530.191 176.291 529.072 176.62 527.787 176.62ZM527.787 173.418C528.291 173.418 528.751 173.262 529.167 172.949C529.584 172.619 529.914 172.064 530.157 171.283C530.417 170.484 530.547 169.382 530.547 167.976C530.547 166.57 530.417 165.485 530.157 164.721C529.914 163.958 529.584 163.428 529.167 163.133C528.751 162.821 528.291 162.664 527.787 162.664C527.284 162.664 526.824 162.821 526.407 163.133C525.991 163.428 525.652 163.958 525.392 164.721C525.149 165.485 525.027 166.57 525.027 167.976C525.027 169.382 525.149 170.484 525.392 171.283C525.652 172.064 525.991 172.619 526.407 172.949C526.824 173.262 527.284 173.418 527.787 173.418ZM527.787 169.981C527.215 169.981 526.729 169.799 526.329 169.434C525.947 169.052 525.756 168.558 525.756 167.95C525.756 167.342 525.947 166.856 526.329 166.492C526.729 166.11 527.215 165.919 527.787 165.919C528.378 165.919 528.864 166.11 529.245 166.492C529.627 166.856 529.818 167.342 529.818 167.95C529.818 168.558 529.627 169.052 529.245 169.434C528.864 169.799 528.378 169.981 527.787 169.981Z" fill="#DDF291"/>
<path fill-rule="evenodd" clip-rule="evenodd" d="M641.255 17.1099H61.0012C58.5361 17.1099 56.5377 19.1083 56.5377 21.5734V365.262H645.719V21.5734C645.719 19.1083 643.72 17.1099 641.255 17.1099ZM61.0012 14.1343C56.8926 14.1343 53.562 17.4649 53.562 21.5734V368.238H648.694V21.5734C648.694 17.4649 645.364 14.1343 641.255 14.1343H61.0012Z" fill="#DDF291"/>
<path fill-rule="evenodd" clip-rule="evenodd" d="M633.072 26.7808H68.4403C68.0294 26.7808 67.6964 27.1139 67.6964 27.5248V70.6718C67.6964 71.0827 68.0294 71.4158 68.4403 71.4158H633.072C633.483 71.4158 633.816 71.0827 633.816 70.6718V27.5248C633.816 27.1139 633.483 26.7808 633.072 26.7808ZM68.4403 23.8052C66.386 23.8052 64.7207 25.4705 64.7207 27.5248V70.6718C64.7207 72.7261 66.386 74.3914 68.4403 74.3914H633.072C635.126 74.3914 636.792 72.7261 636.792 70.6718V27.5248C636.792 25.4705 635.126 23.8052 633.072 23.8052H68.4403Z" fill="#DDF291"/>
<path fill-rule="evenodd" clip-rule="evenodd" d="M281.944 86.2943H68.4403C68.0294 86.2943 67.6964 86.6273 67.6964 87.0382V352.616C67.6964 353.027 68.0294 353.36 68.4403 353.36H281.944C282.355 353.36 282.688 353.027 282.688 352.616V87.0382C282.688 86.6273 282.355 86.2943 281.944 86.2943ZM68.4403 83.3186C66.386 83.3186 64.7207 84.9839 64.7207 87.0382V352.616C64.7207 354.67 66.386 356.336 68.4403 356.336H281.944C283.998 356.336 285.664 354.67 285.664 352.616V87.0382C285.664 84.9839 283.998 83.3186 281.944 83.3186H68.4403Z" fill="#DDF291"/>
<path fill-rule="evenodd" clip-rule="evenodd" d="M456.764 86.2943H302.03C301.619 86.2943 301.286 86.6273 301.286 87.0382V193.418C301.286 193.829 301.619 194.162 302.03 194.162H456.764C457.175 194.162 457.508 193.829 457.508 193.418V87.0382C457.508 86.6273 457.175 86.2943 456.764 86.2943ZM302.03 83.3186C299.975 83.3186 298.31 84.9839 298.31 87.0382V193.418C298.31 195.472 299.975 197.138 302.03 197.138H456.764C458.818 197.138 460.484 195.472 460.484 193.418V87.0382C460.484 84.9839 458.818 83.3186 456.764 83.3186H302.03Z" fill="#DDF291"/>
<path fill-rule="evenodd" clip-rule="evenodd" d="M456.764 209.04H302.03C301.619 209.04 301.286 209.373 301.286 209.784V316.164C301.286 316.575 301.619 316.908 302.03 316.908H456.764C457.175 316.908 457.508 316.575 457.508 316.164V209.784C457.508 209.373 457.175 209.04 456.764 209.04ZM302.03 206.064C299.975 206.064 298.31 207.73 298.31 209.784V316.164C298.31 318.218 299.975 319.883 302.03 319.883H456.764C458.818 319.883 460.484 318.218 460.484 316.164V209.784C460.484 207.73 458.818 206.064 456.764 206.064H302.03Z" fill="#DDF291"/>
<path fill-rule="evenodd" clip-rule="evenodd" d="M633.072 86.2943H478.338C477.927 86.2943 477.594 86.6273 477.594 87.0382V193.418C477.594 193.829 477.927 194.162 478.338 194.162H633.072C633.483 194.162 633.816 193.829 633.816 193.418V87.0382C633.816 86.6273 633.483 86.2943 633.072 86.2943ZM478.338 83.3186C476.283 83.3186 474.618 84.9839 474.618 87.0382V193.418C474.618 195.472 476.283 197.138 478.338 197.138H633.072C635.126 197.138 636.792 195.472 636.792 193.418V87.0382C636.792 84.9839 635.126 83.3186 633.072 83.3186H478.338Z" fill="#DDF291"/>
<path fill-rule="evenodd" clip-rule="evenodd" d="M633.072 209.04H478.338C477.927 209.04 477.594 209.373 477.594 209.784V316.164C477.594 316.575 477.927 316.908 478.338 316.908H633.072C633.483 316.908 633.816 316.575 633.816 316.164V209.784C633.816 209.373 633.483 209.04 633.072 209.04ZM478.338 206.064C476.283 206.064 474.618 207.73 474.618 209.784V316.164C474.618 318.218 476.283 319.883 478.338 319.883H633.072C635.126 319.883 636.792 318.218 636.792 316.164V209.784C636.792 207.73 635.126 206.064 633.072 206.064H478.338Z" fill="#DDF291"/>
<path d="M703 396.507C703 404.724 696.339 411.385 688.122 411.385L22.3175 411.385C9.99189 411.385 2.2439e-05 401.393 2.15907e-05 389.068L2.11811e-05 383.116C2.08984e-05 379.008 3.33064 375.677 7.43917 375.677L695.561 375.677C699.669 375.677 703 379.008 703 383.116L703 396.507Z" fill="#400559"/>
<path fill-rule="evenodd" clip-rule="evenodd" d="M22.3175 408.41L688.122 408.41C694.695 408.41 700.024 403.081 700.024 396.507L700.024 383.116C700.024 380.651 698.026 378.653 695.561 378.653L7.43917 378.653C4.97405 378.653 2.97568 380.651 2.97568 383.116L2.97568 389.068C2.97568 399.75 11.6353 408.41 22.3175 408.41ZM688.122 411.385C696.339 411.385 703 404.724 703 396.507L703 383.116C703 379.008 699.669 375.677 695.561 375.677L7.43917 375.677C3.33066 375.677 2.08984e-05 379.008 2.11811e-05 383.116L2.15907e-05 389.068C2.2439e-05 401.393 9.99189 411.385 22.3175 411.385L688.122 411.385Z" fill="#DDF291"/>
<path fill-rule="evenodd" clip-rule="evenodd" d="M302.721 384.529L401.275 384.599C403.984 384.601 406.181 382.406 406.183 379.697C406.183 379.164 405.751 378.732 405.218 378.732L296.834 378.655C296.843 381.899 299.474 384.527 302.721 384.529ZM401.273 387.574C405.625 387.577 409.156 384.052 409.158 379.699C409.16 377.523 407.396 375.758 405.22 375.756L296.815 375.679C295.183 375.678 293.859 377 293.858 378.632C293.855 383.529 297.822 387.501 302.719 387.505L401.273 387.574Z" fill="#DDF291"/>
<path d="M95.2212 56.5292L89.0614 62.489H75.8794V34.2202H89.0614L95.2212 43.5223V56.5292ZM87.0902 55.603V41.1062H84.0514V55.603H87.0902Z" fill="#F279C2"/>
<path fill-rule="evenodd" clip-rule="evenodd" d="M299.426 328.811C299.426 327.989 300.092 327.323 300.914 327.323H633.816C634.638 327.323 635.304 327.989 635.304 328.811C635.304 329.632 634.638 330.298 633.816 330.298H300.914C300.092 330.298 299.426 329.632 299.426 328.811ZM299.426 339.225C299.426 338.404 300.092 337.738 300.914 337.738H633.816C634.638 337.738 635.304 338.404 635.304 339.225C635.304 340.047 634.638 340.713 633.816 340.713H300.914C300.092 340.713 299.426 340.047 299.426 339.225ZM299.426 350.012C299.426 349.19 300.092 348.524 300.914 348.524H457.136C457.958 348.524 458.624 349.19 458.624 350.012C458.624 350.834 457.958 351.5 457.136 351.5H300.914C300.092 351.5 299.426 350.834 299.426 350.012Z" fill="#DDF291"/>
<path fill-rule="evenodd" clip-rule="evenodd" d="M409.897 101.172H315.42C315.009 101.172 314.676 101.506 314.676 101.916V110.099C314.676 110.51 315.009 110.843 315.42 110.843H409.897C410.308 110.843 410.641 110.51 410.641 110.099V101.916C410.641 101.505 410.308 101.172 409.897 101.172ZM315.42 98.1968C313.366 98.1968 311.7 99.8621 311.7 101.916V110.099C311.7 112.154 313.366 113.819 315.42 113.819H409.897C411.952 113.819 413.617 112.154 413.617 110.099V101.916C413.617 99.8621 411.952 98.1968 409.897 98.1968H315.42Z" fill="#DDF291"/>
<path fill-rule="evenodd" clip-rule="evenodd" d="M409.897 223.175H315.42C315.009 223.175 314.676 223.508 314.676 223.919V232.102C314.676 232.512 315.009 232.846 315.42 232.846H409.897C410.308 232.846 410.641 232.512 410.641 232.102V223.919C410.641 223.508 410.308 223.175 409.897 223.175ZM315.42 220.199C313.366 220.199 311.7 221.864 311.7 223.919V232.102C311.7 234.156 313.366 235.821 315.42 235.821H409.897C411.952 235.821 413.617 234.156 413.617 232.102V223.919C413.617 221.864 411.952 220.199 409.897 220.199H315.42Z" fill="#DDF291"/>
<path fill-rule="evenodd" clip-rule="evenodd" d="M586.949 223.175H492.472C492.061 223.175 491.728 223.508 491.728 223.919V232.102C491.728 232.512 492.061 232.846 492.472 232.846H586.949C587.36 232.846 587.693 232.512 587.693 232.102V223.919C587.693 223.508 587.36 223.175 586.949 223.175ZM492.472 220.199C490.418 220.199 488.752 221.864 488.752 223.919V232.102C488.752 234.156 490.418 235.821 492.472 235.821H586.949C589.004 235.821 590.669 234.156 590.669 232.102V223.919C590.669 221.864 589.004 220.199 586.949 220.199H492.472Z" fill="#DDF291"/>
<path fill-rule="evenodd" clip-rule="evenodd" d="M586.949 101.172H492.472C492.061 101.172 491.728 101.506 491.728 101.916V110.099C491.728 110.51 492.061 110.843 492.472 110.843H586.949C587.36 110.843 587.693 110.51 587.693 110.099V101.916C587.693 101.505 587.36 101.172 586.949 101.172ZM492.472 98.1968C490.418 98.1968 488.752 99.8621 488.752 101.916V110.099C488.752 112.154 490.418 113.819 492.472 113.819H586.949C589.004 113.819 590.669 112.154 590.669 110.099V101.916C590.669 99.8621 589.004 98.1968 586.949 98.1968H492.472Z" fill="#DDF291"/>
<path fill-rule="evenodd" clip-rule="evenodd" d="M320.256 284.432L312.847 297.264H327.664L320.256 284.432ZM320.256 290.383L318.001 294.289H322.51L320.256 290.383Z" fill="#F279C2" stroke="#400559"/>
<path fill-rule="evenodd" clip-rule="evenodd" d="M497.307 284.432L489.898 297.264H504.716L497.307 284.432ZM497.307 290.383L495.052 294.289H499.562L497.307 290.383Z" fill="#F279C2" stroke="#400559"/>
</svg>
