<svg width="557" height="612" viewBox="0 0 557 612" fill="none" xmlns="http://www.w3.org/2000/svg">
<path d="M293.781 80.3221C297.137 79.215 300.725 79.0094 304.185 79.726L482.434 116.636C491.795 118.574 498.508 126.82 498.508 136.379V577.498C498.508 585.795 493.425 593.245 485.7 596.271L456.139 607.852C451.914 609.507 447.253 609.688 442.912 608.367L294.082 563.051C286.063 560.609 280.391 553.46 279.837 545.096L251.042 110.348C250.435 101.173 256.112 92.749 264.844 89.8683L293.781 80.3221Z" fill="#DDF291"/>
<path fill-rule="evenodd" clip-rule="evenodd" d="M481.617 120.585L303.368 83.6746C300.599 83.1014 297.729 83.2658 295.044 84.1516L266.107 93.6977C259.121 96.0023 254.58 102.741 255.066 110.081L283.86 544.829C284.304 551.521 288.841 557.24 295.257 559.194L444.086 604.509C447.56 605.566 451.288 605.421 454.668 604.097L484.229 592.516C490.41 590.095 494.476 584.135 494.476 577.498V136.379C494.476 128.732 489.105 122.135 481.617 120.585ZM304.185 79.726C300.725 79.0094 297.137 79.215 293.781 80.3221L264.844 89.8683C256.112 92.749 250.435 101.173 251.042 110.348L279.837 545.096C280.391 553.46 286.063 560.609 294.082 563.051L442.912 608.367C447.253 609.688 451.914 609.507 456.139 607.852L485.7 596.271C493.425 593.245 498.508 585.795 498.508 577.498V136.379C498.508 126.82 491.795 118.574 482.434 116.636L304.185 79.726Z" fill="#400559"/>
<path d="M250.514 109.924C250.514 97.1533 262.236 87.5998 274.745 90.1767L452.171 126.73C461.541 128.66 468.265 136.91 468.265 146.477V589.197C468.265 601.967 456.542 611.521 444.034 608.944L266.608 572.391C257.238 570.46 250.514 562.21 250.514 552.643V109.924Z" fill="#DDF291"/>
<path fill-rule="evenodd" clip-rule="evenodd" d="M451.357 130.679L273.931 94.1262C263.924 92.0647 254.547 99.7075 254.547 109.924V552.643C254.547 560.297 259.925 566.897 267.422 568.441L444.848 604.994C454.855 607.056 464.232 599.413 464.232 589.197V146.477C464.232 138.824 458.854 132.224 451.357 130.679ZM274.745 90.1767C262.236 87.5998 250.514 97.1533 250.514 109.924V552.643C250.514 562.21 257.238 570.46 266.608 572.391L444.034 608.944C456.542 611.521 468.265 601.967 468.265 589.197V146.477C468.265 136.91 461.541 128.66 452.171 126.73L274.745 90.1767Z" fill="#400559"/>
<path d="M268.66 126.809C268.66 120.417 274.532 115.639 280.791 116.939L440.071 150.013C444.749 150.984 448.103 155.106 448.103 159.883V569.859C448.103 576.229 442.269 581.002 436.025 579.741L276.745 547.562C272.042 546.611 268.66 542.478 268.66 537.68V126.809Z" fill="#DDF291"/>
<path fill-rule="evenodd" clip-rule="evenodd" d="M439.251 153.961L279.971 120.887C276.216 120.107 272.693 122.974 272.693 126.809V537.68C272.693 540.559 274.722 543.039 277.543 543.609L436.824 575.788C440.57 576.545 444.07 573.681 444.07 569.859V159.883C444.07 157.017 442.058 154.544 439.251 153.961ZM280.791 116.939C274.532 115.639 268.66 120.417 268.66 126.809V537.68C268.66 542.478 272.042 546.611 276.745 547.562L436.025 579.741C442.269 581.002 448.103 576.229 448.103 569.859V159.883C448.103 155.106 444.749 150.984 440.071 150.013L280.791 116.939Z" fill="#400559"/>
<path d="M284.79 266.731C284.79 260.406 290.546 255.644 296.759 256.828L416.723 279.699C421.477 280.606 424.916 284.762 424.916 289.602V509.384C424.916 515.858 418.901 520.653 412.59 519.212L292.626 491.81C288.041 490.763 284.79 486.685 284.79 481.983V266.731Z" fill="#DDF291"/>
<path fill-rule="evenodd" clip-rule="evenodd" d="M415.968 283.66L296.003 260.789C292.276 260.079 288.822 262.936 288.822 266.731V481.983C288.822 484.804 290.773 487.251 293.524 487.879L413.488 515.281C417.275 516.146 420.884 513.268 420.884 509.384V289.602C420.884 286.698 418.82 284.204 415.968 283.66ZM296.759 256.828C290.546 255.644 284.79 260.406 284.79 266.731V481.983C284.79 486.685 288.041 490.763 292.626 491.81L412.59 519.212C418.901 520.653 424.916 515.858 424.916 509.384V289.602C424.916 284.762 421.477 280.606 416.723 279.699L296.759 256.828Z" fill="#400559"/>
<path fill-rule="evenodd" clip-rule="evenodd" d="M486.411 220.271V197.084C486.411 194.857 484.605 193.052 482.378 193.052C480.151 193.052 478.346 194.857 478.346 197.084V220.271C478.346 222.498 480.151 224.303 482.378 224.303C484.605 224.303 486.411 222.498 486.411 220.271ZM482.378 189.02C477.924 189.02 474.313 192.63 474.313 197.084V220.271C474.313 224.725 477.924 228.336 482.378 228.336C486.832 228.336 490.443 224.725 490.443 220.271V197.084C490.443 192.63 486.832 189.02 482.378 189.02Z" fill="#400559"/>
<path fill-rule="evenodd" clip-rule="evenodd" d="M486.411 264.628V241.441C486.411 239.214 484.605 237.409 482.378 237.409C480.151 237.409 478.346 239.214 478.346 241.441V264.628C478.346 266.855 480.151 268.66 482.378 268.66C484.605 268.66 486.411 266.855 486.411 264.628ZM482.378 233.376C477.924 233.376 474.313 236.987 474.313 241.441V264.628C474.313 269.082 477.924 272.692 482.378 272.692C486.832 272.692 490.443 269.082 490.443 264.628V241.441C490.443 236.987 486.832 233.376 482.378 233.376Z" fill="#400559"/>
<path d="M368.966 180.451L360.94 188.315L347.292 184.987V147.687L360.94 151.015L368.966 163.289V180.451ZM357 179.628V160.5L354.412 160.101V179.229L357 179.628Z" fill="#F279C2"/>
<path fill-rule="evenodd" clip-rule="evenodd" d="M301.011 229.064C307.048 229.169 313.237 223.123 313.397 213.929C313.556 204.735 307.581 198.478 301.544 198.373C295.507 198.268 289.318 204.314 289.158 213.508C288.998 222.701 294.974 228.959 301.011 229.064ZM300.941 233.096C309.861 233.251 317.242 224.701 317.428 213.999C317.614 203.297 310.534 194.496 301.614 194.341C292.694 194.186 285.312 202.736 285.126 213.438C284.94 224.139 292.021 232.941 300.941 233.096Z" fill="#400559"/>
<path fill-rule="evenodd" clip-rule="evenodd" d="M330.189 206.795C330.393 205.7 331.447 204.979 332.541 205.184L418.734 221.313C419.829 221.518 420.55 222.572 420.345 223.666C420.14 224.761 419.087 225.482 417.992 225.277L331.8 209.147C330.705 208.943 329.984 207.889 330.189 206.795Z" fill="#400559"/>
<path fill-rule="evenodd" clip-rule="evenodd" d="M330.189 218.892C330.393 217.797 331.447 217.076 332.541 217.281L418.734 233.411C419.829 233.615 420.55 234.669 420.345 235.763C420.14 236.858 419.087 237.579 417.992 237.374L331.8 221.245C330.705 221.04 329.984 219.986 330.189 218.892Z" fill="#400559"/>
<path fill-rule="evenodd" clip-rule="evenodd" d="M330.187 229.989C330.388 228.894 331.438 228.168 332.533 228.369L368.321 234.921C369.417 235.122 370.142 236.172 369.941 237.268C369.741 238.363 368.69 239.088 367.595 238.888L331.807 232.335C330.712 232.135 329.987 231.084 330.187 229.989Z" fill="#400559"/>
<path d="M295.919 503.656L308.936 506.755C312.198 507.532 314.5 510.446 314.5 513.8C314.5 518.477 310.132 521.928 305.581 520.844L292.564 517.745C289.302 516.968 287 514.054 287 510.7C287 506.023 291.368 502.572 295.919 503.656Z" fill="#F279C2" stroke="#400559" stroke-width="4"/>
<path fill-rule="evenodd" clip-rule="evenodd" d="M342.728 516.352L329.605 513.227C326.285 512.437 323.097 514.955 323.097 518.368C323.097 520.815 324.777 522.942 327.158 523.508L340.28 526.633C343.6 527.423 346.788 524.905 346.788 521.492C346.788 519.045 345.108 516.918 342.728 516.352ZM330.539 509.305C324.685 507.911 319.065 512.35 319.065 518.368C319.065 522.682 322.027 526.432 326.224 527.431L339.346 530.555C345.2 531.949 350.82 527.51 350.82 521.492C350.82 517.178 347.858 513.428 343.662 512.429L330.539 509.305Z" fill="#400559"/>
<path d="M94.7617 313.809C94.7617 307.418 100.632 302.64 106.889 303.938L293.389 342.602C298.068 343.572 301.423 347.694 301.423 352.473V462.936C301.423 469.327 295.553 474.104 289.296 472.807L102.796 434.143C98.117 433.173 94.7617 429.05 94.7617 424.272V313.809Z" fill="#DDF291"/>
<path fill-rule="evenodd" clip-rule="evenodd" d="M292.57 346.551L106.071 307.886C102.316 307.108 98.7941 309.974 98.7941 313.809V424.272C98.7941 427.139 100.807 429.612 103.615 430.194L290.114 468.859C293.869 469.637 297.391 466.77 297.391 462.936V352.473C297.391 349.606 295.378 347.133 292.57 346.551ZM106.889 303.938C100.632 302.64 94.7617 307.418 94.7617 313.809V424.272C94.7617 429.05 98.117 433.173 102.796 434.143L289.296 472.807C295.553 474.104 301.423 469.327 301.423 462.936V352.473C301.423 347.694 298.068 343.572 293.389 342.602L106.889 303.938Z" fill="#400559"/>
<path fill-rule="evenodd" clip-rule="evenodd" d="M130.593 345.365C130.822 344.275 131.892 343.578 132.981 343.807L171.289 351.872C172.379 352.101 173.076 353.171 172.847 354.26C172.617 355.35 171.548 356.047 170.459 355.818L132.151 347.753C131.061 347.524 130.364 346.454 130.593 345.365Z" fill="#400559"/>
<path fill-rule="evenodd" clip-rule="evenodd" d="M130.591 353.438C130.816 352.348 131.882 351.645 132.973 351.87L150.11 355.398C151.201 355.623 151.903 356.689 151.678 357.78C151.454 358.87 150.388 359.572 149.297 359.348L132.159 355.82C131.069 355.595 130.367 354.529 130.591 353.438Z" fill="#400559"/>
<path fill-rule="evenodd" clip-rule="evenodd" d="M120.469 335.195H124.501V410.695L264.558 441.597L263.689 445.535L120.469 413.935V335.195Z" fill="#400559"/>
<path d="M167 429.097V399.287L179 400.903V430.713L167 429.097Z" fill="#DDF291" stroke="#400559" stroke-width="4"/>
<path d="M125.509 334.691C125.509 336.361 124.155 337.715 122.485 337.715C120.814 337.715 119.46 336.361 119.46 334.691C119.46 333.021 120.814 331.667 122.485 331.667C124.155 331.667 125.509 333.021 125.509 334.691Z" fill="#400559"/>
<path d="M267.652 443.566C267.652 445.236 266.298 446.59 264.627 446.59C262.957 446.59 261.603 445.236 261.603 443.566C261.603 441.896 262.957 440.542 264.627 440.542C266.298 440.542 267.652 441.896 267.652 443.566Z" fill="#400559"/>
<path d="M136.598 401.544L153.232 405.073V425.924L136.598 422.396V401.544Z" fill="#DDF291"/>
<path fill-rule="evenodd" clip-rule="evenodd" d="M136.598 401.544V422.396L153.232 425.924V405.073L136.598 401.544ZM140.631 406.522V419.129L149.199 420.947V408.34L140.631 406.522Z" fill="#400559"/>
<path d="M195.572 361.91L211.702 365.438V439.366L195.572 435.837V361.91Z" fill="#DDF291"/>
<path d="M198 434.724V365.485L210 368.11V437.349L198 434.724Z" fill="#F279C2" stroke="#400559" stroke-width="4"/>
<path d="M227 441.756V357.469L239.5 360.12V444.407L227 441.756Z" fill="#F279C2" stroke="#400559" stroke-width="4"/>
<path d="M409.291 62.9682C409.291 56.5202 415.26 51.7298 421.555 53.1265L548.576 81.3098C553.19 82.3336 556.474 86.4253 556.474 91.1515V128.629C556.474 135.058 550.536 139.845 544.253 138.48L451.515 118.334C446.436 117.231 441.351 120.17 439.771 125.121L437.306 132.844C436.678 134.814 433.845 134.673 433.414 132.651L430.727 120.049C429.944 116.374 427.182 113.44 423.562 112.436L416.677 110.527C412.312 109.316 409.291 105.342 409.291 100.812V62.9682Z" fill="#DDF291"/>
<path fill-rule="evenodd" clip-rule="evenodd" d="M547.703 85.2465L420.682 57.0632C416.905 56.2252 413.323 59.0994 413.323 62.9682V100.812C413.323 103.53 415.136 105.914 417.755 106.641L424.64 108.55C429.708 109.956 433.574 114.064 434.671 119.208L435.774 124.382L435.93 123.895C438.142 116.963 445.261 112.849 452.371 114.394L545.109 134.539C548.879 135.358 552.441 132.486 552.441 128.629V91.1515C552.441 88.3158 550.471 85.8607 547.703 85.2465ZM421.555 53.1265C415.26 51.7298 409.291 56.5202 409.291 62.9682V100.812C409.291 105.342 412.312 109.316 416.677 110.527L423.562 112.436C427.182 113.44 429.944 116.374 430.727 120.049L433.414 132.651C433.845 134.673 436.678 134.814 437.306 132.844L439.771 125.121C441.351 120.17 446.436 117.231 451.515 118.334L544.253 138.48C550.536 139.845 556.474 135.058 556.474 128.629V91.1515C556.474 86.4253 553.19 82.3336 548.576 81.3098L421.555 53.1265Z" fill="#400559"/>
<path fill-rule="evenodd" clip-rule="evenodd" d="M422.945 73.6236C423.18 72.535 424.252 71.8428 425.341 72.0774L542.281 97.28C543.37 97.5146 544.062 98.5872 543.827 99.6757C543.593 100.764 542.52 101.457 541.431 101.222L424.491 76.0193C423.403 75.7847 422.71 74.7121 422.945 73.6236Z" fill="#400559"/>
<path fill-rule="evenodd" clip-rule="evenodd" d="M423.449 83.7046C423.684 82.6161 424.756 81.9239 425.845 82.1585L542.785 107.361C543.873 107.596 544.566 108.668 544.331 109.757C544.096 110.845 543.024 111.538 541.935 111.303L424.995 86.1004C423.907 85.8658 423.214 84.7932 423.449 83.7046Z" fill="#400559"/>
<path fill-rule="evenodd" clip-rule="evenodd" d="M423.449 93.7863C423.683 92.6977 424.756 92.0051 425.844 92.2394L505.484 109.377C506.573 109.611 507.266 110.684 507.031 111.772C506.797 112.861 505.725 113.554 504.636 113.319L424.996 96.1815C423.907 95.9473 423.215 94.8749 423.449 93.7863Z" fill="#400559"/>
<path d="M312.513 601.373C312.513 607.821 306.543 612.611 300.248 611.214L173.227 583.031C168.613 582.007 165.329 577.916 165.329 573.189L165.329 535.712C165.329 529.283 171.267 524.496 177.55 525.861L270.288 546.006C275.367 547.11 280.452 544.171 282.032 539.22L284.497 531.497C285.126 529.527 287.958 529.668 288.389 531.69L291.076 544.292C291.859 547.967 294.621 550.901 298.241 551.905L305.126 553.814C309.491 555.025 312.513 558.999 312.513 563.529L312.513 601.373Z" fill="#DDF291"/>
<path fill-rule="evenodd" clip-rule="evenodd" d="M174.1 579.094L301.121 607.278C304.898 608.116 308.48 605.242 308.48 601.373L308.48 563.529C308.48 560.811 306.667 558.427 304.048 557.7L297.164 555.791C292.095 554.385 288.229 550.277 287.132 545.133L286.029 539.959L285.874 540.446C283.661 547.378 276.542 551.492 269.432 549.947L176.694 529.802C172.925 528.983 169.362 531.855 169.362 535.712L169.362 573.189C169.362 576.025 171.332 578.48 174.1 579.094ZM300.248 611.214C306.543 612.611 312.513 607.821 312.513 601.373L312.513 563.529C312.513 558.999 309.491 555.025 305.126 553.814L298.241 551.905C294.621 550.901 291.859 547.967 291.076 544.292L288.389 531.69C287.958 529.668 285.126 529.527 284.497 531.497L282.032 539.22C280.452 544.171 275.367 547.11 270.288 546.006L177.55 525.861C171.267 524.496 165.329 529.283 165.329 535.712L165.329 573.189C165.329 577.916 168.613 582.007 173.227 583.031L300.248 611.214Z" fill="#400559"/>
<path fill-rule="evenodd" clip-rule="evenodd" d="M189.677 547.06C186.424 546.785 183.496 549.252 183.207 552.656C183.085 554.098 183.46 555.457 184.181 556.565L195.615 571.559L209.825 558.217C210.495 557.322 210.934 556.228 211.037 555.014C211.326 551.61 208.854 548.685 205.601 548.41C202.348 548.134 199.42 550.601 199.131 554.005C199.037 555.115 198.062 555.938 196.952 555.844C195.843 555.75 195.019 554.774 195.113 553.665C195.402 550.261 192.931 547.336 189.677 547.06ZM197.638 547.744C196.031 545.15 193.285 543.319 190.018 543.042C184.477 542.573 179.66 546.762 179.189 552.315C178.986 554.713 179.623 556.994 180.857 558.849C180.881 558.885 180.906 558.921 180.933 558.955L193.763 575.78C194.109 576.234 194.631 576.52 195.2 576.567C195.768 576.614 196.33 576.418 196.746 576.027L212.704 561.045C212.778 560.976 212.846 560.901 212.909 560.821C214.102 559.303 214.88 557.423 215.055 555.354C215.526 549.801 211.483 544.861 205.942 544.392C202.675 544.115 199.659 545.457 197.638 547.744Z" fill="#400559"/>
<path fill-rule="evenodd" clip-rule="evenodd" d="M222.839 565.108C223.082 564.021 224.159 563.336 225.246 563.579L290.773 578.196C291.86 578.439 292.544 579.516 292.302 580.603C292.059 581.69 290.982 582.374 289.895 582.132L224.368 567.515C223.281 567.272 222.597 566.195 222.839 565.108Z" fill="#400559"/>
<path fill-rule="evenodd" clip-rule="evenodd" d="M222.839 557.043C223.082 555.956 224.159 555.272 225.246 555.514L290.773 570.132C291.86 570.374 292.544 571.452 292.302 572.538C292.059 573.625 290.982 574.31 289.895 574.067L224.368 559.45C223.281 559.207 222.597 558.13 222.839 557.043Z" fill="#400559"/>
<path fill-rule="evenodd" clip-rule="evenodd" d="M222.843 572.654C223.093 571.569 224.176 570.893 225.261 571.143L258.024 578.704C259.109 578.954 259.786 580.037 259.535 581.122C259.285 582.207 258.202 582.883 257.117 582.633L224.354 575.072C223.269 574.822 222.592 573.739 222.843 572.654Z" fill="#400559"/>
<path d="M482.882 307.67C482.882 301.309 488.701 296.538 494.939 297.784L530.727 304.937C535.44 305.878 538.832 310.016 538.832 314.822V353.865C538.832 360.319 532.852 365.11 526.553 363.703L490.766 355.709C486.158 354.68 482.882 350.591 482.882 345.87V307.67Z" fill="#DDF291"/>
<path fill-rule="evenodd" clip-rule="evenodd" d="M529.936 308.891L494.149 301.738C490.406 300.991 486.915 303.853 486.915 307.67V345.87C486.915 348.703 488.88 351.156 491.645 351.774L527.432 359.768C531.212 360.612 534.8 357.737 534.8 353.865V314.822C534.8 311.938 532.764 309.456 529.936 308.891ZM494.939 297.784C488.701 296.538 482.882 301.309 482.882 307.67V345.87C482.882 350.591 486.158 354.68 490.766 355.709L526.553 363.703C532.852 365.11 538.832 360.319 538.832 353.865V314.822C538.832 310.016 535.44 305.878 530.727 304.937L494.939 297.784Z" fill="#400559"/>
<path fill-rule="evenodd" clip-rule="evenodd" d="M519.698 315.899L521.675 319.414L500.565 331.288L523.71 344.641L521.695 348.134L492.418 331.244L519.698 315.899Z" fill="#400559"/>
<path d="M522.702 319.168C522.702 321.952 520.445 324.209 517.662 324.209C514.878 324.209 512.621 321.952 512.621 319.168C512.621 316.385 514.878 314.128 517.662 314.128C520.445 314.128 522.702 316.385 522.702 319.168Z" fill="#400559"/>
<path d="M502.54 331.266C502.54 334.049 500.283 336.306 497.5 336.306C494.716 336.306 492.459 334.049 492.459 331.266C492.459 328.482 494.716 326.225 497.5 326.225C500.283 326.225 502.54 328.482 502.54 331.266Z" fill="#400559"/>
<path d="M523.71 345.379C523.71 348.163 521.454 350.42 518.67 350.42C515.886 350.42 513.629 348.163 513.629 345.379C513.629 342.595 515.886 340.339 518.67 340.339C521.454 340.339 523.71 342.595 523.71 345.379Z" fill="#400559"/>
<path d="M0 423.628C0 417.258 5.83354 412.485 12.0769 413.746L66.5146 424.741C71.2178 425.691 74.5998 429.824 74.5998 434.623V494.466C74.5998 500.929 68.6033 505.723 62.2987 504.3L7.86106 492.01C3.26447 490.972 0 486.889 0 482.176V423.628Z" fill="#DDF291"/>
<path fill-rule="evenodd" clip-rule="evenodd" d="M65.7162 428.694L11.2786 417.699C7.53255 416.942 4.03242 419.806 4.03242 423.628V482.176C4.03242 485.004 5.9911 487.454 8.74905 488.077L63.1867 500.366C66.9695 501.22 70.5673 498.344 70.5673 494.466V434.623C70.5673 431.744 68.5382 429.264 65.7162 428.694ZM12.0769 413.746C5.83354 412.485 0 417.258 0 423.628V482.176C0 486.889 3.26447 490.972 7.86106 492.01L62.2987 504.3C68.6033 505.723 74.5998 500.929 74.5998 494.466V434.623C74.5998 429.824 71.2178 425.691 66.5146 424.741L12.0769 413.746Z" fill="#400559"/>
<path fill-rule="evenodd" clip-rule="evenodd" d="M57.3905 450.707L58.5417 454.571L39.3413 460.291L61.4939 473.071L59.4788 476.564L29.21 459.101L57.3905 450.707Z" fill="#400559"/>
<path fill-rule="evenodd" clip-rule="evenodd" d="M16.5578 455.578L17.7176 451.716L32.8077 456.247L25.9038 430.515L29.7985 429.47L38.5771 462.19L16.5578 455.578Z" fill="#400559"/>
<path d="M63.5107 452.639C63.5107 455.423 61.254 457.68 58.4702 457.68C55.6864 457.68 53.4297 455.423 53.4297 452.639C53.4297 449.855 55.6864 447.599 58.4702 447.599C61.254 447.599 63.5107 449.855 63.5107 452.639Z" fill="#400559"/>
<path d="M14.6531 450.155C16.6215 448.186 19.813 448.186 21.7815 450.155C23.7499 452.123 23.7499 455.315 21.7815 457.283C19.813 459.251 16.6215 459.251 14.6531 457.283C12.6847 455.315 12.6847 452.123 14.6531 450.155Z" fill="#400559"/>
<path d="M24.7342 477.373C26.7026 475.405 29.8941 475.405 31.8625 477.373C33.831 479.342 33.831 482.533 31.8625 484.502C29.8941 486.47 26.7026 486.47 24.7342 484.502C22.7657 482.533 22.7657 479.342 24.7342 477.373Z" fill="#400559"/>
<path fill-rule="evenodd" clip-rule="evenodd" d="M25.8145 480.719L33.3752 458.541L37.192 459.842L29.6312 482.021L25.8145 480.719Z" fill="#400559"/>
<path d="M61.4946 473.809C61.4946 476.593 59.2379 478.85 56.4541 478.85C53.6703 478.85 51.4136 476.593 51.4136 473.809C51.4136 471.025 53.6703 468.769 56.4541 468.769C59.2379 468.769 61.4946 471.025 61.4946 473.809Z" fill="#400559"/>
<path d="M25.5642 430.564C27.5327 428.596 30.7242 428.596 32.6926 430.564C34.6611 432.533 34.6611 435.724 32.6926 437.693C30.7242 439.661 27.5327 439.661 25.5642 437.693C23.5958 435.724 23.5958 432.533 25.5642 430.564Z" fill="#400559"/>
<path d="M43.3486 459.192C43.3486 463.367 39.9635 466.752 35.7878 466.752C31.6121 466.752 28.2271 463.367 28.2271 459.192C28.2271 455.016 31.6121 451.631 35.7878 451.631C39.9635 451.631 43.3486 455.016 43.3486 459.192Z" fill="#DDF291"/>
<path fill-rule="evenodd" clip-rule="evenodd" d="M35.7879 453.647C32.7257 453.647 30.2434 456.129 30.2434 459.192C30.2434 462.254 32.7257 464.736 35.7879 464.736C38.8501 464.736 41.3325 462.254 41.3325 459.192C41.3325 456.129 38.8501 453.647 35.7879 453.647ZM26.2109 459.192C26.2109 453.902 30.4987 449.615 35.7879 449.615C41.0772 449.615 45.3649 453.902 45.3649 459.192C45.3649 464.481 41.0772 468.769 35.7879 468.769C30.4987 468.769 26.2109 464.481 26.2109 459.192Z" fill="#400559"/>
<path d="M405.258 27.2188C405.258 42.2514 381.568 74.0957 378.039 74.0957C374.511 74.0957 350.82 42.2514 350.82 27.2188C350.82 12.1863 363.007 0 378.039 0C393.072 0 405.258 12.1863 405.258 27.2188Z" fill="#DDF291"/>
<path fill-rule="evenodd" clip-rule="evenodd" d="M397.819 39.2416C400.036 34.2749 401.226 30.103 401.226 27.2188C401.226 14.4133 390.845 4.03242 378.039 4.03242C365.234 4.03242 354.853 14.4133 354.853 27.2188C354.853 30.103 356.042 34.2749 358.259 39.2416C360.427 44.0977 363.386 49.301 366.493 54.1047C369.598 58.9062 372.79 63.2154 375.38 66.2847C376.413 67.5092 377.311 68.4894 378.039 69.209C378.768 68.4894 379.666 67.5092 380.699 66.2847C383.288 63.2154 386.48 58.9062 389.586 54.1047C392.692 49.301 395.651 44.0977 397.819 39.2416ZM376.741 70.3456C376.638 70.4117 376.647 70.3914 376.751 70.3392C376.747 70.3414 376.744 70.3436 376.741 70.3456ZM379.328 70.3392C379.431 70.3914 379.44 70.4117 379.338 70.3456C379.334 70.3436 379.331 70.3414 379.328 70.3392ZM378.039 74.0957C381.568 74.0957 405.258 42.2514 405.258 27.2188C405.258 12.1863 393.072 0 378.039 0C363.007 0 350.82 12.1863 350.82 27.2188C350.82 42.2514 374.511 74.0957 378.039 74.0957Z" fill="#400559"/>
<path d="M392.153 26.2107C392.153 34.0054 385.834 40.3242 378.039 40.3242C370.245 40.3242 363.926 34.0054 363.926 26.2107C363.926 18.4161 370.245 12.0973 378.039 12.0973C385.834 12.0973 392.153 18.4161 392.153 26.2107Z" fill="#DDF291"/>
<path fill-rule="evenodd" clip-rule="evenodd" d="M378.039 36.2918C383.607 36.2918 388.12 31.7783 388.12 26.2107C388.12 20.6431 383.607 16.1297 378.039 16.1297C372.472 16.1297 367.958 20.6431 367.958 26.2107C367.958 31.7783 372.472 36.2918 378.039 36.2918ZM378.039 40.3242C385.834 40.3242 392.153 34.0054 392.153 26.2107C392.153 18.4161 385.834 12.0973 378.039 12.0973C370.245 12.0973 363.926 18.4161 363.926 26.2107C363.926 34.0054 370.245 40.3242 378.039 40.3242Z" fill="#400559"/>
<path d="M34.2754 117.245C34.2754 110.849 40.1549 106.07 46.4159 107.377L200.152 139.461C204.825 140.436 208.173 144.555 208.173 149.329V295.114C208.173 301.51 202.294 306.289 196.033 304.982L42.2969 272.898C37.6238 271.923 34.2754 267.804 34.2754 263.03V117.245Z" fill="#DDF291"/>
<path fill-rule="evenodd" clip-rule="evenodd" d="M199.328 143.408L45.5921 111.324C41.8355 110.54 38.3078 113.407 38.3078 117.245V263.03C38.3078 265.894 40.3169 268.366 43.1207 268.951L196.857 301.035C200.613 301.819 204.141 298.951 204.141 295.114V149.329C204.141 146.465 202.132 143.993 199.328 143.408ZM46.4159 107.377C40.1549 106.07 34.2754 110.849 34.2754 117.245V263.03C34.2754 267.804 37.6238 271.923 42.2969 272.898L196.033 304.982C202.294 306.289 208.173 301.51 208.173 295.114V149.329C208.173 144.555 204.825 140.436 200.152 139.461L46.4159 107.377Z" fill="#400559"/>
<path fill-rule="evenodd" clip-rule="evenodd" d="M144.202 180.035C144.432 178.946 145.501 178.248 146.591 178.478L184.899 186.543C185.988 186.772 186.686 187.841 186.456 188.931C186.227 190.021 185.158 190.718 184.068 190.489L145.76 182.424C144.67 182.194 143.973 181.125 144.202 180.035Z" fill="#400559"/>
<path fill-rule="evenodd" clip-rule="evenodd" d="M144.202 171.971C144.432 170.881 145.501 170.184 146.591 170.413L184.899 178.478C185.988 178.707 186.686 179.777 186.456 180.866C186.227 181.956 185.158 182.653 184.068 182.424L145.76 174.359C144.67 174.13 143.973 173.06 144.202 171.971Z" fill="#400559"/>
<path fill-rule="evenodd" clip-rule="evenodd" d="M144.201 188.109C144.425 187.018 145.491 186.316 146.582 186.541L163.72 190.069C164.81 190.294 165.512 191.36 165.288 192.451C165.063 193.541 163.997 194.243 162.907 194.019L145.769 190.49C144.678 190.266 143.976 189.2 144.201 188.109Z" fill="#400559"/>
<path d="M124.291 249.257C149.381 250.441 170.68 231.062 171.864 205.973L154.929 204.955L144.868 210.187C144.082 226.839 141.665 234.766 125.012 233.98C108.36 233.194 95.4983 219.058 96.2843 202.405C97.0703 185.753 109.048 181.612 119.11 181.612L127.964 175.172L128.58 158.401L119.11 158.401C96.3599 159.924 82.1084 178.363 81.0076 201.684C79.8233 226.774 99.2022 248.072 124.291 249.257Z" fill="#DDF291"/>
<path d="M113.979 255.694C139.069 256.879 160.368 237.5 161.552 212.411L146.275 211.689C145.489 228.342 131.353 241.204 114.7 240.418C98.0483 239.632 85.1863 225.495 85.9723 208.843C86.7583 192.191 100.895 179.329 117.547 180.115L118.268 164.838C93.1787 163.654 71.8798 183.033 70.6956 208.122C69.5113 233.211 88.8901 254.51 113.979 255.694Z" fill="#DDF291"/>
<path d="M114.063 255.253C138.95 256.428 159 237.114 160.5 215.114L146.099 211.602C145.319 228.12 131.296 240.879 114.778 240.099C98.2597 239.319 85.5011 225.296 86.2808 208.778C87.0604 192.26 101.083 179.501 117.601 180.281L118.317 165.127C93.4292 163.952 72.3016 183.175 71.1269 208.063C69.9521 232.95 89.1752 254.078 114.063 255.253Z" fill="#DDF291" stroke="#400559" stroke-width="4"/>
</svg>
